<?xml version="1.0" encoding="UTF-8" standalone="no"?>
<!-- Created with Inkscape (http://www.inkscape.org/) -->

<svg
   xmlns:dc="http://purl.org/dc/elements/1.1/"
   xmlns:cc="http://creativecommons.org/ns#"
   xmlns:rdf="http://www.w3.org/1999/02/22-rdf-syntax-ns#"
   xmlns:svg="http://www.w3.org/2000/svg"
   xmlns="http://www.w3.org/2000/svg"
   xmlns:sodipodi="http://sodipodi.sourceforge.net/DTD/sodipodi-0.dtd"
   xmlns:inkscape="http://www.inkscape.org/namespaces/inkscape"
   width="200"
   height="369"
   id="svg2"
   version="1.1"
   inkscape:version="0.48.3.1 r9886"
   sodipodi:docname="muscular_system_front.svg">
  <defs
     id="defs4" />
  <sodipodi:namedview
     id="base"
     pagecolor="#ffffff"
     bordercolor="#666666"
     borderopacity="1.0"
     inkscape:pageopacity="0.0"
     inkscape:pageshadow="2"
     inkscape:zoom="1.979899"
     inkscape:cx="180.17271"
     inkscape:cy="118.17094"
     inkscape:document-units="px"
     inkscape:current-layer="layer1"
     showgrid="false"
     fit-margin-top="0"
     fit-margin-left="0"
     fit-margin-right="0"
     fit-margin-bottom="0"
     inkscape:window-width="910"
     inkscape:window-height="624"
     inkscape:window-x="169"
     inkscape:window-y="137"
     inkscape:window-maximized="0"
     height="524.41px" />
  <metadata
     id="metadata7">
    <rdf:RDF>
      <cc:Work
         rdf:about="">
        <dc:format>image/svg+xml</dc:format>
        <dc:type
           rdf:resource="http://purl.org/dc/dcmitype/StillImage" />
        <dc:title></dc:title>
      </cc:Work>
    </rdf:RDF>
  </metadata>
  <g
     inkscape:label="Ebene 1"
     inkscape:groupmode="layer"
     id="layer1"
     transform="translate(-395.71431,-316.50506)">
    <path
       sodipodi:nodetypes="cssszacsc"
       inkscape:connector-curvature="0"
       id="path2992"
       d="m 520.2455,501.96347 c -1.66702,1.72091 -9.04566,17.0447 -10.99886,26.3645 -2.03299,9.70052 -5.11378,23.09955 -4.48703,30.75514 0.18671,2.28058 1.71644,5.12395 3.81899,6.48252 4.03864,2.60959 11.57099,-3.7841 13.04257,-6.16247 1.47158,-2.37837 2.99174,-8.38181 4.12606,-12.67917 1.95283,-7.39828 5.39338,-17.08945 4.5949,-22.49044 -3.88315,-2.57282 -5.35165,-3.5051 -6.55749,-6.96854 -1.58244,-4.54509 -3.337,-15.59524 -3.53914,-15.30154 z"
       style="opacity:0.52424239;fill:#fc0000;fill-opacity:1;stroke:none" />
    <path
       sodipodi:nodetypes="cssszacsc"
       inkscape:connector-curvature="0"
       id="path2992-4"
       d="m 469.80904,501.37145 c 1.66702,1.72091 9.04566,17.0447 10.99886,26.3645 2.03299,9.70052 5.11378,23.09955 4.48703,30.75514 -0.18671,2.28058 -1.71644,5.12395 -3.81899,6.48252 -4.03864,2.60959 -11.57099,-3.7841 -13.04257,-6.16247 -1.47158,-2.37837 -2.99174,-8.38181 -4.12606,-12.67917 -1.95283,-7.39828 -5.39338,-17.08945 -4.5949,-22.49044 3.88315,-2.57282 5.35165,-3.5051 6.55749,-6.96854 1.58244,-4.54509 3.337,-15.59524 3.53914,-15.30154 z"
       style="opacity:0.52424239;fill:#fc0000;fill-opacity:1;stroke:none" />
  </g>
</svg>
