<svg xmlns="http://www.w3.org/2000/svg" xmlns:xlink="http://www.w3.org/1999/xlink" width="1000" height="600" xmlns:v="https://vecta.io/nano"><defs><linearGradient id="A" gradientUnits="userSpaceOnUse" x1="498.738" y1="289.055" x2="500.626" y2="283.42"><stop stop-color="#510000" offset="0"/><stop stop-color="#8a0000" offset=".3"/><stop stop-color="#a00" offset="1"/></linearGradient><linearGradient id="B" gradientUnits="userSpaceOnUse" x1="501.444" y1="291.373" x2="502.927" y2="287.449"><stop stop-color="#ff2a2a" offset="0"/><stop stop-color="red" offset="1"/></linearGradient><linearGradient id="C" gradientUnits="userSpaceOnUse" x1="484.764" y1="311.709" x2="484.764" y2="317.647"><stop stop-color="#f5f549" offset="0"/><stop stop-color="#97c924" offset="1"/></linearGradient><linearGradient id="D" gradientUnits="userSpaceOnUse"><stop stop-color="#025" offset="0"/><stop stop-color="#04a" offset=".5"/><stop stop-color="#025" offset="1"/></linearGradient><linearGradient id="E" xlink:href="#D" x1="444.509" y1="317.486" x2="634.411" y2="317.486"/><clipPath id="F"><path d="M500 226.375l-63.702 110.332H563.7z"/></clipPath></defs><path fill="#0067c6" d="M0 0h1000v600H0z"/><path fill="#fff" d="M0 200h1000v200H0z"/><path d="M410 299.329l9.979.667.098-1.458-3.925-.262.304-4.81 4.161-3.017.124-1.848-4.388 3.186c-.148-1.038-.722-2.107-1.765-2.468-.913-.33-2.032-.388-2.823.265-1.003.738-1.184 2.058-1.314 3.207l-.451 6.538zm1.52-1.362l.35-4.914c.124-.808.272-1.742.98-2.257.64-.424 1.584-.108 1.846.614.522 1.247.29 2.622.223 3.93l-.19 2.841-3.21-.214zm-.221-13.961l9.738 2.274 2.213-9.478-1.383-.324-1.883 8.063-2.964-.692 1.696-7.266-1.377-.321-1.696 7.266-2.623-.613 1.812-7.76-1.39-.325-2.143 9.176zm3.508-13.077l9.445 3.285.48-1.38-3.715-1.292 1.462-4.284c.32-1.177.567-2.552-.126-3.647-.562-.809-1.562-1.327-2.55-1.296-1.088.046-1.975.847-2.458 1.775-.714 1.342-1.113 2.818-1.634 4.24l-.904 2.599zm1.825-.912l1.51-4.254c.34-.749.755-1.637 1.617-1.875.708-.163 1.451.382 1.513 1.108.173 1.336-.411 2.597-.821 3.837l-.78 2.241-3.039-1.057zm3.392-11.184l5.338 3.107c1.01.543 2.29.854 3.347.246 1.44-.798 2.343-2.271 3.05-3.708.559-1.21.963-2.713.252-3.95-.765-1.235-2.156-1.803-3.343-2.54l-3.457-2.022-.734 1.254 5.086 2.986c.807.491 1.475 1.38 1.336 2.369-.16 1.178-.833 2.211-1.503 3.164-.554.77-1.483 1.393-2.47 1.185-1.029-.197-1.865-.87-2.769-1.357l-3.4-1.989-.733 1.255zm7.203-11.771l7.942 6.077 3.701-4.824c.712-1.022 1.368-2.35.886-3.604-.439-.998-1.466-1.77-2.568-1.82-.497-.07-1.145.307-1.414.473.283-1.066-.59-2.068-1.572-2.35-1.182-.42-2.38.338-3.163 1.178-.92 1.001-1.688 2.129-2.53 3.195l-1.282 1.675zm2.014-.298l2.783-3.576c.453-.504 1.18-1.075 1.882-.705.64.277.798 1.085.492 1.666-.485 1.04-1.286 1.883-1.954 2.805l-1.09 1.426-2.113-1.616zm3.236 2.476l2.89-3.703c.52-.544 1.173-1.229 1.997-1.072.705.162 1.217.926.974 1.636-.397 1.309-1.376 2.311-2.165 3.396l-1.24 1.622-2.456-1.879zm3.754-12.785l6.867 7.269 5.883-5.558-.976-1.033-4.705 4.446-.12.114-.088-.092-5.805-6.144zm8.804-7.703l6.095 7.928 1.19-.915-6.096-7.927zm8.956-6.082c-.988.615-1.784 1.335-2.398 2.176s-.941 1.71-.989 2.622.196 1.794.733 2.657a5.145 5.145 0 0 0 1.976 1.844c.82.439 1.706.601 2.676.493s2.055-.535 3.27-1.292c1.165-.726 1.99-1.562 2.5-2.524a4.31 4.31 0 0 0 .416-2.948l-1.383.543c.362 1.998-.927 2.958-2.37 3.874-2.259 1.374-4.46 1.275-5.808-.79-1.398-2.327.13-4.25 2.051-5.5 1.364-.85 2.708-1.432 3.988-.618l1.082-.964c-.745-.514-1.592-.752-2.555-.7-1.012.056-2.069.429-3.189 1.127zm11.817-5.897l-1.047 11.206 1.557-.628.315-3.474.006-.003 5.058-2.04 2.637 2.284 1.557-.627-8.526-7.346-1.558.628zm1.368 1.149l3.325 2.877-3.723 1.502.398-4.38zm20.55-7.331l.624 9.98 5.414-.355c1.418-.163 2.939-.531 3.908-1.66 1.251-1.387 1.429-3.461.881-5.188-.46-1.52-1.827-2.671-3.375-2.963-1.525-.293-3.079-.061-4.614.008l-2.838.178zm1.54 1.327l4.309-.224a3.675 3.675 0 0 1 2.288.701c1 .684 1.588 1.916 1.457 3.125-.072 1.39-1.094 2.669-2.445 3.02-.772.2-1.576.257-2.367.344l-2.796.175-.447-7.14zM501.664 210l-.57 9.984 9.717.555.08-1.418-8.266-.472.174-3.04 7.449.426.08-1.411-7.449-.426.154-2.689 7.956.454.082-1.425-9.407-.538zm26.11 4.166l-3.616 9.323 1.286.5 2.867-7.393.149-.384.16.427 3.448 9.918 1.684.653 3.616-9.323-1.29-.5-2.865 7.389-.146.377-.158-.422-3.454-9.913zm13.434 5.771l-4.546 8.907-1.336-.682 4.546-8.907zm7.543 4.419c-.971-.64-1.958-1.065-2.978-1.271s-1.947-.142-2.795.195-1.55.926-2.11 1.775a5.145 5.145 0 0 0-.851 2.565c-.056.928.165 1.8.669 2.637s1.344 1.645 2.537 2.432c1.147.757 2.251 1.158 3.338 1.22 1.043.058 1.991-.226 2.852-.852l-1.07-1.03c-1.665 1.163-3.075.392-4.51-.538-2.19-1.48-3.019-3.521-1.705-5.608 1.532-2.242 3.917-1.655 5.854-.43 1.343.885 2.432 1.863 2.226 3.366l1.328.581c.156-.892.02-1.76-.431-2.614-.473-.896-1.252-1.701-2.354-2.428zm9.521 7.182l-10.454 4.17 1.269 1.1 3.236-1.301.005.005 4.119 3.575-.833 3.387 1.268 1.101 2.658-10.936-1.268-1.1zm-.4 1.741l-1.048 4.27-3.032-2.631 4.08-1.639zm7.953 5.207l-7.716 6.363.929 1.127 3.035-2.503 3.08 3.707-.957 5.05 1.178 1.43 1.006-5.33c.864.708 2.127 1.064 3.16.503.888-.42 1.67-1.228 1.716-2.257.108-1.379-.875-2.496-1.662-3.519l-3.769-4.571zm-.17 2.034l3.246 3.998c.475.708 1.068 1.702.523 2.528-.45.707-1.435.645-2.04.187-1.224-.824-2.033-2.087-2.989-3.184l-1.223-1.483 2.483-2.046zm11.868 13.881l-11.243.515.838 1.456 3.484-.17.003.006 2.72 4.727-1.896 2.928.837 1.455 6.094-9.462-.837-1.455zm-.948 1.514l-2.39 3.691-2.002-3.48 4.392-.21zm7.364 11.723c-.625-1.697-1.611-3.434-3.28-4.282-1.856-.933-4.328-.48-5.644 1.155-1.147 1.36-1.206 3.281-.9 4.952.362 1.918 1.242 3.744 2.563 5.186l-.747.268.479 1.331 4.684-1.683-1.822-5.059-1.082.39 1.34 3.728-1.587.57c-1.4-1.203-2.18-2.98-2.586-4.748-.301-1.327-.313-2.917.693-3.96 1.155-1.202 3.202-1.575 4.587-.55 1.367 1 2.139 2.621 2.529 4.233.266 1.06.223 2.32-.581 3.147-.225.168.131.403.192.605l.382.632a3.529 3.529 0 0 0 1.344-2.797c.028-1.064-.206-2.12-.564-3.118zm2.872 7.809l-5.593 1.088c-1.037.202-1.815.53-2.334.968s-.85 1.052-1.009 1.871c-.158.81-.136 1.803.097 3.01a.246.246 0 0 1 .005.029c.237 1.207.588 2.135 1.039 2.827.455.7.993 1.146 1.636 1.356s1.49.225 2.528.023l5.592-1.088-.277-1.427-5.458 1.062c-2.45.476-3.275-.813-3.696-3.019l-.005-.028c-.437-2.202-.155-3.707 2.295-4.184l5.458-1.061-.278-1.427zm3.068 17.02l-10.348-4.425.121 1.675 3.212 1.362v.007l.394 5.44-2.981 1.811.121 1.675 9.602-5.87-.121-1.675zm-1.512.951l-3.757 2.285-.29-4.004 4.047 1.72zm-170.615 24.917l-1.451.382 1.604 6.092 1.45-.381zm164.531 0l1.45.382-1.603 6.092-1.45-.382zm-149.066 25.654l-11.18 1.286.935 1.395 3.464-.409.004.006 3.039 4.53-1.692 3.05.936 1.395 5.43-9.858-.936-1.395zm-.842 1.576l-2.13 3.846-2.237-3.333 4.367-.513zm5.122 4.533l-7.127 6.665.952 1.018 6.006-5.617-3.151 8.67 1.091 1.167 8.612-2.614-5.898 5.516.951 1.017 7.127-6.664-1.445-1.546-8.751 2.614 3.276-8.469zm10.381 10.591l-6.016 7.988 7.776 5.855.854-1.135-6.614-4.98 1.831-2.432 5.96 4.488.851-1.129-5.96-4.488 1.62-2.152 6.366 4.794.86-1.14-7.528-5.669zm9.784 7.161l-4.71 8.823 1.288.688 1.853-3.47 4.26 2.254 1.039 5.034 1.634.872-1.1-5.31c1.069.325 2.372.172 3.113-.74.63-.705 1.058-1.693.756-2.64-.351-1.303-1.634-1.985-2.717-2.617l-5.416-2.894zm.617 1.945l4.525 2.46c.684.463 1.553 1.095 1.467 2.027-.076.818-.958 1.254-1.703 1.08-1.46-.241-2.69-1.111-3.99-1.76l-1.814-.969 1.515-2.838zm10.678 3.961l-3.779 9.259 1.39.566 3.778-9.258zm9.018 3.115c-1.105-.367-2.167-.52-3.206-.455-1.034.065-1.917.369-2.649.915s-1.256 1.297-1.576 2.261a5.145 5.145 0 0 0-.156 2.699c.187.91.627 1.696 1.33 2.373s1.725 1.24 3.082 1.69c1.304.432 2.475.534 3.54.31 1.022-.214 1.864-.734 2.534-1.562l-1.301-.718c-1.306 1.556-2.868 1.178-4.495.652-2.5-.86-3.83-2.616-3.103-4.973.897-2.562 3.353-2.615 5.542-1.935 1.526.506 2.832 1.168 3.023 2.673l1.433.216c-.08-.902-.438-1.705-1.094-2.412-.69-.743-1.651-1.318-2.904-1.734zm10.054 2.251l-6.54 9.16 1.662.24 2.019-2.845h.007l5.398.782 1.13 3.3 1.662.24-3.676-10.637-1.662-.24zm.605 1.68l1.426 4.16-3.973-.575 2.547-3.584zm22.836-1.609c-1.143.22-2.144.607-3.018 1.172s-1.492 1.26-1.863 2.094-.46 1.746-.267 2.744a5.145 5.145 0 0 0 1.184 2.43 4.47 4.47 0 0 0 2.322 1.418c.94.245 2.11.236 3.515-.035 1.348-.26 2.418-.745 3.238-1.461.787-.688 1.267-1.554 1.445-2.603l-1.485.01c-.378 1.997-1.925 2.431-3.601 2.77-2.601.473-4.62-.408-5.14-2.819-.472-2.674 1.644-3.922 3.886-4.4 1.578-.305 3.041-.367 3.944.852l1.356-.513a3.98 3.98 0 0 0-2.135-1.568c-.965-.31-2.085-.341-3.381-.091zm6.678-1.183l2.844 9.587 9.331-2.769-.404-1.362-7.937 2.355-.866-2.918 7.153-2.122-.402-1.355-7.153 2.122-.766-2.582 7.64-2.267-.407-1.37-9.033 2.681zm10.818-3.4l4.198 9.076 1.252-.58-3.501-7.569 9.684 4.464c.215.187.43.062.646-.053l1.259-.582-4.198-9.076-1.255.58 3.497 7.56-9.946-4.577-1.636.757zm10.981-5.158l.783 1.19 3.572-2.35.136-.09.067.103 4.647 7.06 1.214-.799-4.647-7.06-.067-.103.138-.09 3.59-2.363-.784-1.19zm10.062-6.89l6.777 7.355 1.075-.99-2.666-2.892 3.532-3.279 5.095.678 1.362-1.255-5.376-.712c.66-.902.945-2.183.328-3.183-.468-.863-1.318-1.6-2.348-1.59-1.382-.031-2.444 1.012-3.422 1.854l-4.357 4.014zm2.04.058l3.814-3.46c.68-.514 1.64-1.16 2.496-.662.73.41.723 1.398.298 2.026-.756 1.27-1.975 2.147-3.018 3.163l-1.41 1.3-2.18-2.367zm9.594-11.702l4.473 10.327 1.064-1.3-1.396-3.197.004-.005 3.453-4.221 3.41.734 1.064-1.3-11.01-2.337-1.062 1.3zm1.752.349l4.3.923-2.543 3.107-1.757-4.03zm2.603-6.014l8.39 5.44 4.403-6.79-1.192-.772-3.522 5.431-.09.14-.106-.07-7.092-4.598z" fill="#c8a400"/><g clip-path="url(#F)"><path fill="#fff" d="M500.001 226.408l-31.479 54.535-15.42 26.702H546.9l-14.714-25.484-32.184-55.753z"/><g id="G"><g id="H"><path fill="#17c0eb" stroke="#17c0eb" stroke-width=".129" opacity=".62" d="M500.001 226.408l-2.357 4.082 2.357 54.977 2.357-54.977z"/><path fill="#fff" d="M500.001 277.475l-.134.003.134 3.111.134-3.111-.134-.003z"/></g><use xlink:href="#H" transform="rotate(72 500.001 285.467)"/><use xlink:href="#H" transform="rotate(144 500.001 285.467)"/><use xlink:href="#H" transform="rotate(216 500.001 285.467)"/><use xlink:href="#H" transform="rotate(288 500.001 285.467)"/></g><use xlink:href="#G" transform="rotate(8 500.001 285.467)"/><use xlink:href="#G" transform="rotate(16 500.001 285.467)"/><use xlink:href="#G" transform="rotate(24 500.001 285.467)"/><use xlink:href="#G" transform="rotate(32 500.001 285.467)"/><use xlink:href="#G" transform="rotate(40 500.001 285.467)"/><use xlink:href="#G" transform="rotate(48 500.001 285.467)"/><use xlink:href="#G" transform="rotate(56 500.001 285.467)"/><use xlink:href="#G" transform="rotate(64 500.001 285.467)"/><path fill="red" d="M500 265.844a44.236 44.236 0 0 0-28.969 10.75L456.375 302a44.728 44.728 0 0 0-.75 8.25h5.031c0-21.726 17.618-39.344 39.344-39.344s39.344 17.618 39.344 39.344h5.031a44.85 44.85 0 0 0-.75-8.25l-14.656-25.406A44.249 44.249 0 0 0 500 265.844z"/><path fill="#f60" d="M500 266.656c-11.764 0-22.44 4.675-30.281 12.25l-12.031 20.844a43.596 43.596 0 0 0-1.281 10.5h4.25c0-21.726 17.617-39.344 39.343-39.344s39.344 17.618 39.344 39.344h4.25c0-3.625-.447-7.164-1.281-10.531l-12.031-20.813c-7.841-7.574-18.518-12.25-30.282-12.25z"/><path fill="#ff0" d="M500 267.469c-12.702 0-24.1 5.522-31.938 14.313l-8.718 15.093a42.733 42.733 0 0 0-2.125 13.375h3.437c0-21.726 17.618-39.344 39.344-39.344s39.344 17.618 39.344 39.344h3.437c0-4.673-.74-9.165-2.125-13.375l-8.719-15.095c-7.836-8.788-19.237-14.312-31.938-14.312z"/><path fill="#0f0" d="M500 268.25c-14.55 0-27.372 7.414-34.906 18.656l-2.813 4.875a41.818 41.818 0 0 0-4.282 18.47h2.657c0-21.727 17.617-39.345 39.343-39.345s39.344 17.618 39.344 39.344H542a41.824 41.824 0 0 0-4.28-18.437l-2.845-4.937c-7.536-11.227-20.337-18.625-34.875-18.625z"/><path fill="#0cf" d="M500 269.062c-22.747 0-41.188 18.44-41.188 41.188h1.844c0-21.727 17.618-39.344 39.344-39.344s39.344 17.617 39.344 39.344h1.844c0-22.748-18.44-41.188-41.188-41.188z"/><path fill="#00f" d="M500 269.844c-22.306 0-40.375 18.1-40.375 40.406h1.344c0-21.56 17.472-39.031 39.031-39.031s39.031 17.472 39.031 39.031h1.375c0-22.306-18.1-40.406-40.406-40.406z"/><path fill="purple" d="M500.001 270.657c-21.864 0-39.589 17.725-39.589 39.589l.007.733h.801a35.827 35.827 0 0 1-.007-.733c0-21.422 17.366-38.788 38.788-38.788s38.788 17.366 38.788 38.788l-.007.733h.797l.007-.733c0-21.864-17.721-39.589-39.585-39.589z"/><path fill="#510000" d="M500.395 288.134c-.644-.124-1.226-.484-1.775-.61-.756.725-.835 1.457-.731 2.08.262.14.31.353.878.86s.496.773.462 1.965c-.015.503.07 1.581.579 1.682.548.11.932-.346 1.09-1.16.152-.79.417-1.216.698-1.702.306-1.852-.193-2.508-1.201-3.115z"/><path fill="red" d="M497.168 283.524c-.595.015-1.528 1.012-1.943.475-.239-.308-.279-.902-.037-1.4.559-1.151 1.124-1.716 2.167-2.33 2.378-1.401 3.89-.95 5.074 1.063 1.098 1.772 2.152 3.73 2.246 5.371.03.501.283 1.408-.156 1.86-1.348 1.39-4.596-1.435-6.497-.988-.64.15-1.377.617-1.98.218-.47-.31-.078-.997.272-1.294.612-.52 1.501-2.365 1.38-3.165-.067-.446-.08.179-.526.19z"/><path fill="url(#A)" d="M496.927 282.548c-1.083.445-.966 1.076-1.51 1.59.154.058.766.31 1.364-.301.258-.214.548-.293.677-.362-.305.221-.523.554-.684.684-.404.329-1.034 1.083-1.34 1.846s-.43 1.673-.376 1.782.426.78 1.566 1.232c2.03.807 2.417 2.439 4.477 2.439 1.614 0 1.355-1.056 2.646-.832 1.12.194 1.714-.696.636-1.232-1.371-.468-4.092-.192-5.372.033-.414-4.083-.056-2.65-.152-4.405s-.623-1.86.072-3.281c-.578.872-1.277.734-2.004.807z"/><path fill="#ff2a2a" d="M500.938 279.795c-.04.223-.077.516-.056.6l.278.994c.115.336.162.58.24.928.082.36.401.5.694.722.37.28.084 1.037.315 1.069.184.025.488-1.072.49-1.247a3.8 3.8 0 0 0-.037-.647 15.3 15.3 0 0 0-.426-.872 3.652 3.652 0 0 0-.203-.337 4.204 4.204 0 0 0-.786-.863l-.056-.047-.259-.187-.194-.113z"/><path fill="url(#B)" d="M501.249 287.398c-.718-.188-1.426-.543-2.037-.725-1.2-.359-2.48-1.134-3.366-.814-.317.14-.289.456-.39.91-.042.533-.596 1.32-.136 1.062.685-.383 2.49.733 3.095 1.106.287.177.892.524 1.082 1.022s.092 1.756.041 2.296c-.053.566.119 1.835.686 1.987.611.163 1.078-.323 1.316-1.23.23-.881.405-1.387.757-1.915s.756-.756 1.32-.863 1.382.462 1.382-.203c0-.437-.384-.855-.22-1.454.128-.472-.402-.378-.842-.572-1.036-.319-1.97-.42-2.688-.607z"/><path fill="#910000" d="M498.363 288.902c-.327-.178-2.315-1.478-3.043-1.071-.23.128-.317-.016-.32-.257s.109-.594.184-.866.195-.792.516-1.062c.687-.58 2.269.575 3.108.886l-.445 2.37z"/><path fill="#ff3a3a" d="M501.763 291.361c.916-1.603 1.508-1.397 2.613-1.374.369.008.477-.329.393-.667-.278.624-1.662-.07-2.415.263-1.573.692-1.28 3.77-2.027 4.07.776.651 1.124-1.746 1.436-2.292z"/><g fill="url(#E)"><path fill="#fff" d="M453.103 307.645l-9.955 17.237h113.708l-9.956-17.237h-93.797z"/><g id="I"><path id="J" d="M449.705 321.364c-1.658 0-3.197.167-4.71.353l-.486.846 7.14-.709c3.293.08 6.283.83 9.786.83h4.526c3.5 0 6.489-.75 9.783-.83 3.295.08 6.304.83 9.803.83h4.53c3.5 0 6.474-.75 9.765-.83 3.293.08 6.27.83 9.769.83h4.543c3.5 0 6.49-.75 9.787-.83 3.296.08 6.28.83 9.782.83h4.53c3.499 0 6.475-.75 9.765-.83 2.55.062 4.92.518 7.486.724l-.515-.893-4.368-.321c-1.529-.02-3.036.03-4.547 0-3.5 0-6.474.748-9.765.829-3.296-.08-6.283-.829-9.786-.829-1.513-.02-3.03.031-4.526 0-3.5 0-6.493.749-9.786.829-3.294-.08-6.284-.829-9.783-.829-1.522-.02-3.042.03-4.547 0-3.5 0-6.476.749-9.765.829-3.294-.08-6.27-.829-9.769-.829-1.522-.021-3.026.031-4.526 0-3.502 0-6.49.749-9.786.829-3.294-.08-6.283-.829-9.783-.829-1.52-.02-3.043.031-4.547 0z"/><use xlink:href="#J" y="-1.113"/><use xlink:href="#J" y="-2.23"/></g><use xlink:href="#I" y="-3.344"/><use xlink:href="#I" y="-6.691"/><path d="M453.23 307.458l-.123.215h93.79l-.124-.215H453.23zm-.219.377l-.127.22h94.235l-.127-.22h-93.98zm-.2.346l-.205.356h94.792l-.205-.356H452.81zm-.318.55l-.25.434h95.518l-.25-.433h-95.018zm-.399.692l-.25.434h96.316l-.25-.434h-95.816zm-.399.691l-.247.43h97.107l-.247-.43h-96.613zm-.398.692l-.25.43h97.91l-.25-.43h-97.41zm-.43.744l-.304.53h98.877l-.303-.53h-98.27zm6.49.737c3.45.662 3.782 0 3.782 0zm81.503 0s.331.662 3.782 0z"/></g><g fill="#ccd11e"><g id="K"><path fill="url(#C)" d="M530.631 297.043c-1.709 0-2.232.862-2.232.862-2.736 10.576-11.807 21.333-22.6 21.333h-8.08v10.768h61.514l-6.187-10.954c-9.707-1.449-17.64-11.373-20.166-21.147 0 0-.54-.862-2.25-.862z"/><path fill="#97c924" d="M530.631 297.465c-.784 0-1.26.18-1.538.355-.264.165-.315.276-.321.288 0 .007-.015.01-.018.016-1.4 5.323-4.352 10.669-8.334 14.707-4.012 4.07-9.07 6.83-14.605 6.83h-7.674v9.922h60.855l-5.68-10.058c-4.687-.612-8.973-3.163-12.458-6.694-3.986-4.038-6.932-9.384-8.334-14.707l-.017-.016c-.007-.012-.07-.105-.338-.271-.283-.176-.754-.372-1.538-.372z"/><path fill="#ede71f" d="M530.63 297.465c.147 0 .28.021.406.034V308.3c-.029 2.34-.83 4.223-2.012 6.441-.547 1.554-.986.963-2.35 2.857-1.83.654-3.186.909-5.138 1.216-2.517.398-8.121.75-10.887.136 3.641-1.068 6.961-3.27 9.771-6.12a30.57 30.57 0 0 0 2.13-2.4 33.663 33.663 0 0 0 3.01-4.48c.352-.626.686-1.248.997-1.893.467-.966.883-1.95 1.25-2.94.124-.331.245-.667.356-.998.222-.664.417-1.33.592-1.995.002-.006.015-.01.016-.017s.058-.122.321-.287a2.23 2.23 0 0 1 .575-.237h.017c.252-.067.554-.118.946-.118z"/><path fill="#c6cb24" d="M529.938 298.902c-.412 6.034-2.277 13.192-6.644 17.81-1.607 1.337-3.66 2.55-5.646 2.255 6.77-5.51 10.885-13.947 12.29-20.065z"/><path fill="#9ecb34" d="M524.494 309.281c-1.002 2.721-4.788 6.746-8.84 10.045-1.15.035-1.76.101-2.804.038 2.468-.225 8.221-5.083 11.644-10.083z"/></g><use xlink:href="#K" x="-15.341"/><g fill="#c6cb24"><path fill="url(#C)" d="M502.218 297.911c2.735 10.575 11.79 21.333 22.583 21.333h8.089v10.768h-65.812l-.017-10.768h8.072c10.792 0 19.863-10.758 22.6-21.333 0 0 .534-.866 2.243-.866s2.243.866 2.243.866z"/><path fill="#97c924" d="M499.975 297.465c.784 0 1.255.196 1.538.372.269.166.332.259.339.27l.017.017c1.401 5.323 4.348 10.669 8.333 14.707 4.017 4.07 9.087 6.83 14.623 6.83h7.64v9.922h-64.98v-9.923h7.675c5.535 0 10.593-2.76 14.605-6.83 3.982-4.037 6.934-9.383 8.334-14.706.003-.007.015-.01.017-.016.006-.012.057-.123.32-.288.28-.174.755-.355 1.539-.355z"/><path fill="#ede71f" d="M499.263 297.53a3.4 3.4 0 0 0-.242.055h-.018a2.184 2.184 0 0 0-.572.236c-.264.165-.314.274-.32.286-.003.006-.017.01-.018.017l-.593 1.997-.356.995-1.249 2.942a34.21 34.21 0 0 1-.998 1.894 33.634 33.634 0 0 1-3.01 4.477 30.73 30.73 0 0 1-2.13 2.403c-2.81 2.85-6.128 5.05-9.769 6.117 2.765.615 4.032-.056 6.549-.454 1.952-.308 4.21-.563 6.043-1.217 1.364-1.894.899-1.3 1.446-2.854 1.181-2.218 2.906-4.222 3.334-6.681 1.619-3.022 1.903-8.614 1.903-10.213z"/><path d="M499.275 298.902c-.412 6.034-2.277 13.192-6.644 17.81-1.606 1.337-3.66 2.55-5.646 2.255 6.77-5.51 10.885-13.947 12.29-20.065z"/><path fill="#9ecb34" d="M493.832 309.281c-1.002 2.721-4.788 6.747-8.84 10.045-1.15.035-1.76.101-2.804.038 2.467-.225 8.222-5.083 11.644-10.083z"/><path fill="#ede71f" d="M500.951 297.584h.018a2.21 2.21 0 0 1 .571.236c.264.165.315.274.321.286.002.006.016.011.018.018l.592 1.996.357.995 1.249 2.942.998 1.895a33.634 33.634 0 0 0 3.01 4.477 30.73 30.73 0 0 0 2.13 2.402c2.81 2.85 6.128 5.445 9.768 6.512-7.245.028-10.389-.63-13.022-4.016s-3.606-4.868-4.14-6.937-2.026-6.57-1.87-10.806z"/><path d="M501.476 298.902c.412 6.034 2.22 12.006 6.587 16.625 1.607 1.337 3.66 2.55 5.646 2.255-7.335-5.002-10.829-12.762-12.233-18.88z"/></g><g id="L"><path fill="url(#C)" d="M484.749 297.043c-1.71 0-2.248.862-2.248.862-2.523 9.747-11.825 22.318-21.497 23.811l-4.79 8.29h49.015v-11.348c-8.825-2.371-15.89-11.63-18.248-20.753 0 0-.523-.862-2.232-.862z"/><path fill="#97c924" d="M484.749 297.465c-.784 0-1.255.196-1.538.372-.269.166-.332.259-.338.27l-.017.017c-1.402 5.323-4.678 10.705-8.08 14.99s-9.72 8.617-14.042 9.076l-4.282 7.393h48.06V318.89c-3.554-1.091-6.8-3.267-9.552-6.06-3.982-4.037-6.934-9.383-8.334-14.706-.002-.007-.015-.01-.017-.016-.006-.012-.058-.123-.321-.288-.28-.174-.755-.355-1.539-.355z"/><path fill="#93bc30" d="M483.445 298.903c-.617 9.043-5.653 20.454-11.34 22.42-1.855.64-5.099.864-6.227 1.008 9.948-4.731 15.828-15.853 17.567-23.428z"/><path fill="#ede71f" d="M484.746 297.465c-.147 0-.28.021-.406.034V308.3c.03 2.34.831 4.223 2.012 6.441.069.194.136.354.203.49.41 1.086.713 1.463 2.282 2.654 4.987 3.787 11.17 4.353 14.808 4.04-1.14-.898-2.358-1.715-3.431-2.467 1.711-.056 3.35-.25 4.513-.508-3.64-1.067-6.96-3.27-9.77-6.12a30.523 30.523 0 0 1-1.403-1.554l-.592-.812c-1.118-1.4-2.263-2.947-3.145-4.513a34.164 34.164 0 0 1-.997-1.894 34.023 34.023 0 0 1-1.606-3.938 31.676 31.676 0 0 1-.592-1.995c-.002-.006-.015-.01-.017-.017s-.057-.122-.321-.287a2.207 2.207 0 0 0-.575-.237h-.017a3.614 3.614 0 0 0-.946-.118z"/><path d="M485.446 298.902c.412 6.034 2.277 13.192 6.644 17.81 1.606 1.337 3.66 2.55 5.646 2.255-6.77-5.51-10.886-13.947-12.29-20.065z"/><path fill="#9ecb34" d="M489.613 307.247c2.369 5.837 8.37 11.29 14.543 14.954 1.15.035 1.492.003 2.537-.06-4.419-2.371-11.539-5.754-17.08-14.894z"/></g><use xlink:href="#L" x="-15.43" fill="#c6cb24"/></g><path fill="#fff" d="M556.5 324.692c-.574.203-4.421-.19-6.433-.044l-1.28.336c-1.123-.008-2.238.024-3.33 0-3.602 0-6.649.948-10.075.948-3.433 0-6.47-.948-10.075-.948-1.12-.008-2.234.025-3.33 0-3.602 0-6.647.948-10.076.948s-6.473-.948-10.075-.948c-1.131-.007-2.242.023-3.348 0-3.602 0-6.632.948-10.058.948s-6.456-.948-10.058-.948c-.267 0-.516.009-.776.017l-.557-.017c-.12 0-.222-.003-.34 0-.116-.003-.236 0-.355 0-.181 0-.345.013-.523.017l-.78-.017c-3.605 0-6.642.949-10.075.948s-6.473-.948-10.075-.948c-.262 0-.522.01-.776.017-.18-.004-.339-.017-.522-.017-.124 0-.252-.003-.374 0-.117-.003-.237 0-.356 0-.181 0-.362.013-.54.017l-.776-.017c-2.88 0-6.218.607-8.936.85l-6.273 10.858 62.972-.007 64.375.007z"/><path fill="url(#D)" d="M547.993 323.111l-.596.007c-3.24.095-5.564 1.115-11.2 1.115s-6.219-1.019-12.584-.879c-5.947.131-8.443 1.262-11.67 1.217s-8.473-.697-12.51-.275-8.828 1.284-11.973 1.291c-3.909-.017-7.82-.73-11.906-.324s-5.997 1.5-11.063 1.485c-4.356-.013-9.083-.698-12.746-.695-3.435.003-7.267.957-10.086 1.443l-.843 1.464c2.247-.26 8.551-1.218 10.802-1.277 2.344-.061 10.717.483 15.335.325s5.158-1.172 10.618-1.172c3.801 0 6.666.399 10.566.399 2.434 0 4.643-1.242 8.343-1.242l2.794-.091c3.119-.515 8.384.045 12.048.232 3.315.173 5.457-.615 8.914-.73l4.474-.148c3.46-.115 6.422.64 9.68.624 3.25-.2 6.403-.922 9.86-1.037l4.49-.148c2.287-.076 5.837.078 8.273.501l-.84-1.45c-2.379-.076-5.311-.635-8.18-.635z"/><g id="M"><path id="N" fill="url(#D)" d="M450.312 334.748c-3.457 0-6.402.853-9.652.945-1.21-.033-2.367-.183-3.535-.345l-.49.85 1.488.063h4.474c3.457 0 6.382-.852 9.634-.945 3.254.092 6.206.945 9.666.945h4.474c3.457 0 6.412-.853 9.666-.945 3.256.092 6.23.945 9.687.945h4.47c3.457 0 6.401-.853 9.652-.945 3.253.092 6.191.945 9.649.945h4.49c3.458 0 6.41-.853 9.667-.945 3.257.092 6.21.945 9.67.945h4.47c3.456 0 6.4-.853 9.651-.945 3.253.092 6.21.945 9.666.945h4.474l1.778-.077-.463-.797-3.235.306c-3.254-.092-6.195-.945-9.652-.945-1.51-.02-2.997.03-4.49 0-3.458 0-6.397.853-9.649.945-3.257-.091-6.206-.945-9.666-.945-1.496-.02-2.993.03-4.473 0-3.458 0-6.413.853-9.667.945-3.254-.092-6.209-.945-9.666-.945-1.503-.02-3.003.03-4.49 0-3.458 0-6.4.853-9.65.945-3.253-.092-6.194-.945-9.651-.945-1.506-.02-2.99.03-4.474 0-3.46 0-6.409.854-9.666.945-3.254-.092-6.208-.945-9.666-.945-1.502-.02-3.006.03-4.49 0z"/><use xlink:href="#N" y="-1.289"/><use xlink:href="#N" y="-2.575"/></g><use xlink:href="#M" y="-3.867"/><use xlink:href="#M" y="-7.729"/><path fill="#97c924" d="M443.846 324.705l-2.427 4.191c2.839-.47 7.102-1.703 10.634-1.706 3.663-.003 8.082.903 12.438.916 5.066.014 6.976-1.079 11.063-1.485s7.998.527 11.906.545c3.145-.007 7.936-1.09 11.973-1.512s7.737.293 12.603.369 5.63-1.18 11.576-1.31c6.366-.141 6.947.877 12.584.877 4.242.229 7.883-.854 11.666-1.121s5.539.043 8.305.109l-1.838-3.253c-.03 0-.06.003-.092.004l-101.246 2.226z"/><path fill="#fff" d="M550.067 324.648l3.847.276a91.39 91.39 0 0 0 2.955.253l-.37-.485c-.573.203-4.42-.19-6.432-.044z"/></g><path fill="#c8a400" d="M500 224.874l-32.142 55.686L435 337.459l64.298-.007 65.702.007-32.153-55.683L500 224.874zm0 3.002l31.55 54.652 30.85 53.428-63.102-.004-61.701.004 31.56-54.645z"/></svg>