<?xml version="1.0" encoding="UTF-8" standalone="no"?>
<!-- Created with Inkscape (http://www.inkscape.org/) -->

<svg
   xmlns:dc="http://purl.org/dc/elements/1.1/"
   xmlns:cc="http://creativecommons.org/ns#"
   xmlns:rdf="http://www.w3.org/1999/02/22-rdf-syntax-ns#"
   xmlns:svg="http://www.w3.org/2000/svg"
   xmlns="http://www.w3.org/2000/svg"
   xmlns:sodipodi="http://sodipodi.sourceforge.net/DTD/sodipodi-0.dtd"
   xmlns:inkscape="http://www.inkscape.org/namespaces/inkscape"
   width="251.58029"
   height="82.53125"
   id="svg1341"
   sodipodi:version="0.32"
   inkscape:version="0.48.3.1 r9886"
   sodipodi:docname="agpl-v3.svg"
   inkscape:output_extension="org.inkscape.output.svg.inkscape"
   version="1.0">
  <sodipodi:namedview
     id="base"
     pagecolor="#ffffff"
     bordercolor="#666666"
     borderopacity="1.0"
     inkscape:pageopacity="0.0"
     inkscape:pageshadow="2"
     inkscape:zoom="0.35740741"
     inkscape:cx="-2.3581856"
     inkscape:cy="-155.23251"
     inkscape:document-units="px"
     inkscape:current-layer="layer1"
     inkscape:window-width="1278"
     inkscape:window-height="971"
     inkscape:window-x="72"
     inkscape:window-y="27"
     showguides="true"
     inkscape:guide-bbox="true"
     width="18in"
     height="12in"
     units="in"
     showborder="true"
     showgrid="false"
     fit-margin-top="0"
     fit-margin-left="0"
     fit-margin-right="0"
     fit-margin-bottom="0"
     inkscape:window-maximized="0">
    <sodipodi:guide
       orientation="horizontal"
       position="-986.45464,1437.1361"
       id="guide2344" />
    <sodipodi:guide
       orientation="horizontal"
       position="-986.45464,1585.6152"
       id="guide2346" />
    <sodipodi:guide
       orientation="vertical"
       position="-1806.5777,-448.25"
       id="guide3321" />
    <sodipodi:guide
       orientation="vertical"
       position="-1105.0386,-448.25"
       id="guide3323" />
    <sodipodi:guide
       orientation="horizontal"
       position="-986.45464,517.55899"
       id="guide5223" />
    <sodipodi:guide
       orientation="horizontal"
       position="-986.45464,381.76431"
       id="guide5235" />
  </sodipodi:namedview>
  <defs
     id="defs1343" />
  <metadata
     id="metadata1346">
    <rdf:RDF>
      <cc:Work
         rdf:about="">
        <dc:format>image/svg+xml</dc:format>
        <dc:type
           rdf:resource="http://purl.org/dc/dcmitype/StillImage" />
      </cc:Work>
    </rdf:RDF>
  </metadata>
  <g
     inkscape:label="Layer 1"
     id="layer1"
     inkscape:groupmode="layer"
     transform="translate(-986.45464,-549.21875)">
    <g
       id="g2803"
       transform="matrix(0.3530567,0,0,0.3530567,91.758709,726.11865)" />
    <g
       id="g3276">
      <path
         d="m 1129.343,613.39675 c 0,0 -0.01,0 -0.01,0 -0.4753,0 -0.895,0.15681 -1.2895,0.47543 -0.2933,0.23256 -0.4956,0.54617 -0.6574,0.89511 0,0 0.02,0 0.02,0 0.1619,-0.34894 0.3642,-0.66255 0.6524,-0.89511 0.3945,-0.31862 0.8141,-0.47032 1.2795,-0.47543 z"
         id="path2877"
         style="fill:#bd0000;fill-opacity:1;fill-rule:evenodd;stroke:none"
         inkscape:connector-curvature="0" />
      <path
         d="m 1129.3581,613.39675 c -0.01,0 -0.01,0 -0.015,0 0.4906,0.005 0.8142,0.17202 1.0317,0.53106 0.096,0.1517 0.1466,0.37926 0.1466,0.66746 0,0.0507 -0.01,0.11638 -0.015,0.17202 0,0 0.02,0 0.02,0 0,-0.0557 0.01,-0.12138 0.01,-0.17202 0,-0.2882 -0.045,-0.51576 -0.1416,-0.66746 -0.2174,-0.36414 -0.5461,-0.53106 -1.0367,-0.53106 z"
         id="path2879"
         style="fill:#bd0000;fill-opacity:1;fill-rule:evenodd;stroke:none"
         inkscape:connector-curvature="0" />
      <path
         id="path2943"
         sodipodi:nodetypes="cccccssccccscccsccc"
         d="m 1142.2514,621.25816 c 0.2053,0.52772 0.4105,1.05463 0.6244,1.56996 0.3293,0.70016 0.7099,1.37035 1.1676,1.99598 2.472,3.36027 6.6119,5.20015 11.868,5.65826 0,0 5.6539,0 5.6539,0 1.7877,-0.13949 3.661,-0.39948 5.6027,-0.77927 3.3486,-0.65481 6.8984,-1.66067 10.585,-3.00492 2.7928,-1.01825 5.6625,-2.22301 8.5749,-3.62325 6.3426,-3.04042 12.8946,-6.96172 19.3226,-11.69401 2.117,-1.55721 4.1484,-3.15504 6.0987,-4.77975 1.7877,-1.48743 3.5027,-2.99806 5.1408,-4.5253 4.5718,-4.40595 8.0232,-8.88072 9.9777,-12.80983 2.0357,-4.09164 2.442,-7.58999 0.774,-9.79384 -1.0221,-1.35277 -2.7328,-2.07772 -4.9354,-2.24832 9.9222,-7.44505 15.7044,-16.47632 13.6302,-22.17044 -0.6587,-1.8172 -2.1085,-3.17296 -4.187,-3.9227 -0.9238,-0.33224 -1.9631,-0.54274 -3.0964,-0.63855 0,0 -3.0537,0 -3.0537,0 -4.2639,0.30754 -10.4645,1.83434 -15.725,4.41236"
         style="fill:#ffffff;fill-opacity:0;fill-rule:evenodd;stroke:#663266;stroke-width:2.52849627;stroke-linecap:butt;stroke-linejoin:miter;stroke-miterlimit:4;stroke-opacity:1"
         inkscape:connector-curvature="0" />
      <path
         d="m 1004.0435,552.47032 c 0,0 -17.58886,76.73986 -17.58886,76.73986 0.005,0 46.26896,0 46.27906,0 20.3465,0 81.3701,0 81.3701,0 10e-5,0 42.3207,0 42.3207,0 -5.0417,-0.44 -9.0223,-2.20991 -11.394,-5.43623 -0.4399,-0.5968 -0.8034,-1.23966 -1.122,-1.91222 -0.2023,-0.49555 -0.3925,-0.99558 -0.5847,-1.50123 -0.5058,-1.6082 -0.7074,-3.39261 -0.6163,-5.29411 0.2528,-5.29974 2.7396,-11.60375 7.0482,-18.20519 4.5765,-7.01551 11.2094,-14.36853 19.422,-21.19191 1.8407,-1.52821 3.7441,-3.03735 5.7364,-4.50395 2.4628,-1.81184 4.9446,-3.48059 7.4275,-5.04115 9.1481,-5.75942 18.2735,-9.78944 26.3596,-11.83648 -7.7271,2.52087 -16.408,6.80051 -24.9847,12.62665 -0.3085,0.20831 -0.6131,0.42171 -0.9166,0.63213 -4.7586,3.29716 -9.0697,6.79886 -12.8321,10.33518 -12.1065,11.3833 -18.5054,23.17874 -15.5976,30.08913 0.2073,0.47533 0.4545,0.92922 0.7427,1.35911 3.1252,4.59676 10.8706,5.39132 20.6862,2.92352 0.6676,-0.16682 1.3351,-0.35588 2.0228,-0.55311 3.1354,-0.90514 6.4642,-2.12773 9.8928,-3.63468 0.8243,-0.36414 1.6574,-0.7383 2.4969,-1.13787 0.086,-0.0404 0.1668,-0.0809 0.2528,-0.12639 10.822,-5.37708 19.1389,-11.56419 20.9391,-15.28158 0.3945,-0.80862 0.4893,-1.49806 0.2213,-2.03861 -1.2845,-2.60438 -10.2726,-0.84492 -21.1604,3.87173 -0.8748,0.37934 -1.7598,0.7696 -2.6549,1.18524 0.7282,-0.67607 1.4862,-1.35479 2.2598,-2.02278 1.234,-1.06299 2.5115,-2.10243 3.8718,-3.12903 2.129,-1.61214 4.2813,-3.0696 6.4003,-4.36164 9.9218,-7.48539 14.9377,-14.56612 13.8909,-17.1938 -0.1972,-0.4951 -0.6169,-0.8356 -1.2643,-1.04304 -2.0683,-0.65788 -5.8433,0.12737 -10.43,2.00706 -3.7827,1.55151 -8.1272,3.85248 -12.5319,6.71632 0,0 -0.6005,0.39509 -0.6005,0.39509 0,0 -0.1106,0.0632 -0.1106,0.0632 0,0 -2.1176,1.40647 -2.1176,1.40647 0,0 1.2168,-2.22819 1.2168,-2.22819 1.8054,-3.30481 4.746,-6.75289 8.4073,-9.956 2.6852,-2.34194 5.753,-4.54851 9.0551,-6.47928 1.2491,-0.73127 2.4963,-1.41042 3.7454,-2.02278 1.2794,-0.6251 2.5594,-1.18059 3.8085,-1.67517 3.629,-1.43514 7.6155,-3.2475 10.6365,-3.48464 -0.2751,0 -9.0087,0.94038 -9.0087,0.94038 0,0 -28.6037,0 -28.6037,0 0,0 -126.1245,0 -126.1245,0 0,0 -56.2666,0 -56.2666,0 z m 137.0046,0.11066 c -0.4955,7.56371 0.971,18.64229 4.2985,30.94241 0.5917,2.18865 1.2357,4.41605 1.9437,6.66895 0.44,1.39118 0.8939,2.76057 1.3591,4.10877 -0.2731,0.40151 -0.548,0.80054 -0.806,1.20107 -4.1517,6.36264 -6.5785,12.37572 -7.1904,17.60462 -1.7548,-5.87623 -3.0758,-12.31261 -3.8243,-19.13757 -0.2124,-1.95547 -0.3786,-3.88913 -0.4899,-5.79968 -0.8192,-13.87791 0.9925,-26.45825 4.7093,-35.58857 z m -82.8556,9.84525 c 0.095,-0.002 0.188,0 0.2844,0 0,0 18.6951,0 18.6951,0 1.598,0 2.8338,0.29955 3.7137,0.90083 0.8748,0.6048 1.203,1.38714 0.9956,2.33885 0,0 -2.2282,10.06657 -2.2282,10.06657 0,0 -6.5899,0 -6.5899,0 0,0 2.165,-9.79788 2.165,-9.79788 0,0 -16.4984,0 -16.4984,0 0,0 -5.9578,26.9284 -5.9578,26.9284 0,0 -2.1493,9.75058 -2.1493,9.75058 0,0 16.4827,0 16.4827,0 0,0 0.016,-0.0632 0.016,-0.0632 0,0 3.3029,-14.91822 3.3029,-14.91822 0,0 -7.7435,0 -7.7435,0 0,0 0.7428,-3.36599 0.7428,-3.36599 0,-9e-5 14.3334,0 14.3334,0 0,-9e-5 -4.1088,18.61601 -4.1088,18.61601 -0.056,0.265 -0.153,0.50504 -0.2845,0.74279 -0.3389,0.61692 -0.9299,1.14534 -1.7541,1.58033 -1.1429,0.60172 -2.5108,0.90073 -4.1089,0.90073 0,0 -18.6792,0 -18.6792,0 -1.598,0 -2.8338,-0.29901 -3.7138,-0.90073 -0.8748,-0.60181 -1.2079,-1.37036 -0.9955,-2.32312 0,0 8.2334,-37.21628 8.2334,-37.21628 0.2124,-0.95171 0.8748,-1.73406 2.0227,-2.33886 0.041,-0.0218 0.086,-0.0267 0.1265,-0.0474 1.0478,-0.52481 2.2774,-0.81987 3.6979,-0.85345 z m 29.299,0 c -10e-5,0 23.5308,0 23.5308,0 1.5777,0 2.8179,0.29955 3.6979,0.90083 0.8849,0.6048 1.2238,1.38714 1.0114,2.33885 0,0 -4.3933,19.84872 -4.3933,19.84872 -0.2073,0.94565 -0.8856,1.71718 -2.0386,2.32304 -1.153,0.60787 -2.5102,0.91655 -4.093,0.91655 0,0 -17.099,0 -17.099,0 0,0 -3.3028,14.90232 -3.3028,14.90232 0,0 -0.5373,2.44951 -0.5373,2.44951 0,0 -6.4477,0 -6.4477,0 0,0 0.4899,-2.21247 0.4899,-2.21247 0,0 9.1817,-41.46735 9.1817,-41.46735 z m 32.5069,0 c 0,0 6.4476,0 6.4476,0 0,0 -7.301,32.98111 -7.301,32.98111 0,0 -1.5961,7.20624 -1.5961,7.20624 0,0 15.4239,0 15.4239,0 0.1618,1.18279 0.3508,2.34458 0.5531,3.49247 0,0 -23.199,0 -23.199,0 0,0 1.8331,-8.28083 1.8331,-8.28083 0,0 7.8384,-35.39899 7.8384,-35.39899 z m -26.8336,3.50837 c 0,0 -4.2827,19.31134 -4.2827,19.31134 0,0 16.0718,0 16.0718,0 0,0 4.2668,-19.31134 4.2668,-19.31134 0,0 -16.0559,0 -16.0559,0 z m -34.2709,45.57815 c 0.063,-0.002 0.1261,0 0.1897,0 0.7484,0 1.4021,0.1314 1.9279,0.37926 0.5614,0.26298 0.9628,0.65358 1.1853,1.16943 0.2174,0.50064 0.2743,1.06888 0.158,1.6909 0,0 -0.047,0.23705 -0.047,0.23705 0,0 -1.849,0 -1.849,0 -1e-4,0 0.016,-0.22123 0.016,-0.22123 0.048,-0.43463 -0.01,-0.77636 -0.1737,-1.01139 -0.022,-0.0294 -0.054,-0.0684 -0.079,-0.0948 -0.042,-0.0426 -0.1044,-0.0912 -0.158,-0.12639 -0.2587,-0.16304 -0.6634,-0.25287 -1.1852,-0.25287 -0.6929,0 -1.2106,0.12068 -1.5645,0.36344 -0.344,0.23767 -0.5614,0.50319 -0.6322,0.82181 -0.071,0.32362 0.046,0.4937 0.1264,0.58467 0,0.002 0.013,0.013 0.016,0.0158 0.1025,0.0873 0.4583,0.29208 1.5645,0.55312 1.0013,0.24276 1.6644,0.46082 2.0386,0.64795 0.5664,0.2882 0.9621,0.66184 1.1694,1.12196 0.2074,0.45521 0.2529,0.98802 0.1264,1.56452 -0.1264,0.56138 -0.4127,1.07907 -0.8375,1.56451 -0.4197,0.48544 -0.9538,0.86979 -1.5962,1.13787 -0.6371,0.26298 -1.3362,0.41082 -2.0543,0.41082 -0.9103,0 -1.6411,-0.13773 -2.2125,-0.41082 -0.5967,-0.28319 -1.0272,-0.73013 -1.28,-1.31172 -0.2427,-0.56631 -0.2946,-1.20925 -0.1581,-1.91214 0,0 0.047,-0.22123 0.047,-0.22123 0,0 1.8174,0 1.8174,0 0,0 -0.016,0.22123 -0.016,0.22123 -0.045,0.41969 -6e-4,0.75853 0.1106,1.0114 0.1063,0.24276 0.3085,0.44377 0.6321,0.60048 0.344,0.16692 0.7738,0.25288 1.2643,0.25288 0.44,0 0.842,-0.0739 1.2011,-0.20541 0.3539,-0.12648 0.6353,-0.2933 0.8375,-0.50574 0.1973,-0.21235 0.3129,-0.43683 0.3635,-0.67951 0.051,-0.21745 0.038,-0.40141 -0.047,-0.55311 -0.096,-0.16181 -0.2864,-0.30534 -0.5847,-0.42664 0,-9e-5 -1.5487,-0.45836 -1.5487,-0.45836 -0.8647,-0.21745 -1.4469,-0.4248 -1.7858,-0.63214 -0.4602,-0.273 -0.792,-0.62326 -0.964,-1.04295 -0.1719,-0.41468 -0.1902,-0.87428 -0.079,-1.37492 0.1163,-0.53606 0.3748,-1.04611 0.7743,-1.50123 0.4046,-0.46021 0.9267,-0.82119 1.5487,-1.05885 0.55,-0.2062 1.1287,-0.32715 1.7383,-0.34762 z m 16.5933,0.0316 c 0.1,-0.008 0.1941,0 0.3003,0 0,0 1.1377,0.12639 1.1377,0.12639 0,0 0.3793,0.0317 0.3793,0.0317 10e-5,0 -0.553,1.40648 -0.553,1.40648 0,0 -0.1107,0.22123 -0.1107,0.22123 0,0 -0.8692,-0.079 -0.8692,-0.079 -0.2566,0 -0.4451,0.0397 -0.5689,0.12649 -0.01,0.006 -0.024,0.0249 -0.032,0.0316 -0.017,0.0146 -0.044,0.0399 -0.063,0.0633 -0.076,0.0998 -0.1687,0.2781 -0.237,0.60049 0,0 -0.033,0.1365 -0.063,0.25287 0.3995,0 1.3591,0 1.3591,0 0,0 -0.3477,1.56451 -0.3477,1.56451 0,0 -0.9937,0 -1.3274,0 -0.1012,0.45511 -1.3433,6.0209 -1.3433,6.0209 0,0 -1.8332,0 -1.8332,0 0,0 1.1916,-5.34834 1.3433,-6.0209 -0.3085,0 -1.0588,0 -1.0588,0 0,0 0.3476,-1.56451 0.3476,-1.56451 0,0 0.7548,0 1.0431,0 0.051,-0.21745 0.1263,-0.48992 0.1263,-0.48992 0.1113,-0.50574 0.2276,-0.86918 0.3793,-1.12205 0.2074,-0.34894 0.5,-0.64092 0.8692,-0.85336 0.3041,-0.17667 0.6886,-0.28232 1.122,-0.31607 z m 4.3775,0.079 c 0,0 -0.4792,2.15621 -0.6005,2.70238 0.3539,0 1.1851,0 1.1851,0 0,0 -0.3476,1.56451 -0.3476,1.56451 0,0 -0.8717,0 -1.1852,0 -0.096,0.43481 -0.8534,3.80854 -0.8534,3.80854 0,0 -0.063,0.40518 -0.063,0.52147 10e-5,0.004 -3e-4,0.0129 0,0.0158 3e-4,0.002 -3e-4,0.0148 0,0.0158 4e-4,7.7e-4 0.015,-6.2e-4 0.016,0 0,0 0.1897,0.0157 0.1897,0.0157 0,0 0.8692,-0.0632 0.8692,-0.0632 0,0 -0.095,1.40648 -0.095,1.40648 0,0 0.016,0.25286 0.016,0.25286 0,0 -1.2484,0.14222 -1.2484,0.14222 -0.4956,0 -0.8591,-0.0809 -1.1221,-0.25287 -0.2781,-0.18203 -0.4399,-0.42347 -0.5056,-0.72689 -0.01,-0.0557 -0.032,-0.13658 -0.032,-0.25286 0,-0.22756 0.043,-0.61254 0.1897,-1.28009 0,0 0.6643,-2.976 0.8059,-3.60303 -0.2377,0 -0.8691,0 -0.8691,0 0,0 0.3476,-1.56451 0.3476,-1.56451 0,0 0.6163,0 0.8692,0 0.081,-0.36415 0.3634,-1.61198 0.3634,-1.61198 0,0 1.4698,-0.77434 1.4698,-0.77434 0,0 0.6005,-0.31607 0.6005,-0.31607 z m -58.2345,0.0632 c 0,0 7.1114,0 7.1114,0 0,0 -0.395,1.77002 -0.395,1.77002 0,0 -4.7441,0 -5.1993,0 -0.081,0.35904 -0.4051,1.8129 -0.5215,2.33885 0.6575,0 4.5039,0 4.5039,0 0,0 -0.3951,1.76992 -0.3951,1.76992 0,0 -4.0487,0 -4.5038,0 -0.096,0.43999 -0.964,4.34582 -0.964,4.34582 0,0 -1.9122,0 -1.9122,0 0,0 2.2756,-10.22461 2.2756,-10.22461 z m 9.5293,2.49698 c 0.071,-0.009 0.1493,0 0.2212,0 0.4552,0 0.8755,0.13843 1.2801,0.42664 0,0 0.2529,0.17386 0.2529,0.17386 0,0 -0.9798,1.61188 -0.9798,1.61188 0,0 -0.2687,-0.18968 -0.2687,-0.18968 -0.1972,-0.12639 -0.4096,-0.18958 -0.6321,-0.18958 -0.1922,0 -0.3711,0.0683 -0.5531,0.18958 -0.1922,0.12649 -0.3528,0.29401 -0.4741,0.52157 -0.2124,0.38937 -0.3679,0.8255 -0.4741,1.29581 0,0 -0.8534,3.88755 -0.8534,3.88755 0,0 -1.8331,0 -1.8331,0 0,0 1.6909,-7.58542 1.6909,-7.58542 0,0 1.7067,0 1.7067,0 0,0 -0.059,0.23003 -0.079,0.31599 0.081,-0.0607 0.1662,-0.14407 0.2371,-0.18959 0.2449,-0.14617 0.5036,-0.2374 0.7585,-0.26861 z m 5.4363,0 c 0.1103,-0.008 0.219,0 0.3318,0 1.0317,0 1.8123,0.36151 2.3231,1.07459 0.3186,0.46013 0.4899,1.02907 0.4899,1.70672 0,0.37417 -0.046,0.7769 -0.1422,1.21681 0,0 -0.1423,0.55311 -0.1423,0.55311 0,0 -4.636,0 -5.1518,0 -0.01,0.10618 -0.016,0.22 -0.016,0.31607 0,0.39447 0.081,0.70482 0.2529,0.93238 0.082,0.11127 0.1764,0.21147 0.2844,0.28442 0.2037,0.1329 0.4666,0.2055 0.7744,0.2055 0.3742,0 0.7029,-0.1031 1.0114,-0.30024 0.2933,-0.18713 0.574,-0.48614 0.8218,-0.90083 0,0 1.9595,0 1.9595,0 0,0 -0.1738,0.37926 -0.1738,0.37926 -0.3742,0.75861 -0.8964,1.35023 -1.5487,1.77001 -0.6523,0.41969 -1.4317,0.64787 -2.2914,0.64787 -1.1176,0 -1.9495,-0.36151 -2.4653,-1.0746 -0.5108,-0.69787 -0.6208,-1.6625 -0.3477,-2.87615 0.2731,-1.23394 0.818,-2.22002 1.6119,-2.90779 0.7116,-0.61702 1.5191,-0.95927 2.4179,-1.02713 z m 8.2334,0 c 0.1103,-0.008 0.219,0 0.3318,0 1.0317,0 1.8124,0.36151 2.3231,1.07459 0.3186,0.46013 0.4899,1.02907 0.4899,1.70672 0,0.36916 -0.046,0.76609 -0.1422,1.20099 0,0 -0.1423,0.56893 -0.1423,0.56893 0,0 -4.636,0 -5.1518,0 -0.01,0.0708 -0.011,0.13466 -0.016,0.20541 0,0.0266 0,0.0669 0,0.0948 -2e-4,0.005 0,0.0114 0,0.0158 0,0.0758 0.011,0.15048 0.016,0.22123 0.025,0.2883 0.1006,0.52912 0.2371,0.71115 0.026,0.0354 0.05,0.0791 0.079,0.11066 0.2316,0.24777 0.5594,0.37926 0.9798,0.37926 0.3742,0 0.7079,-0.1031 1.0113,-0.30024 0.2934,-0.18713 0.5741,-0.48614 0.8219,-0.90083 0,0 1.9753,0 1.9753,0 0,0 -0.1896,0.37926 -0.1896,0.37926 -0.3743,0.75861 -0.8963,1.35023 -1.5487,1.77001 -0.6523,0.41969 -1.4318,0.64787 -2.2914,0.64787 -1.1177,0 -1.9495,-0.36151 -2.4653,-1.0746 -0.3338,-0.45511 -0.4899,-1.03477 -0.4899,-1.72254 0,-0.10618 0.01,-0.22061 0.016,-0.33189 0.02,-0.26288 0.061,-0.52842 0.1264,-0.82172 0.2731,-1.22884 0.8021,-2.22002 1.5961,-2.90779 0.7116,-0.61702 1.5349,-0.95927 2.4337,-1.02713 z m 22.4245,0 c 0.113,-0.009 0.2169,0 0.3319,0 1.0519,0 1.8604,0.3558 2.3863,1.05877 0.5209,0.70289 0.6473,1.65109 0.3793,2.84451 -0.2073,0.93053 -0.507,1.68212 -0.9166,2.22829 -0.4096,0.54617 -0.9317,0.99241 -1.5487,1.29581 -0.6118,0.30341 -1.2598,0.45829 -1.9121,0.45829 -1.0722,0 -1.8705,-0.36661 -2.3864,-1.0746 -0.3337,-0.4501 -0.5056,-1.02967 -0.5056,-1.72254 0,-0.37416 0.041,-0.77179 0.1422,-1.2168 0.3034,-1.35533 0.9229,-2.38755 1.8331,-3.05 0.6682,-0.48237 1.4061,-0.76099 2.1966,-0.82173 z m 27.7662,0 c 0.1333,-0.008 0.2567,0 0.395,0 0.6372,0 1.1378,0.0644 1.5171,0.22123 0.4046,0.16182 0.6915,0.3906 0.8533,0.66369 0.1569,0.25788 0.2371,0.57465 0.2371,0.96401 0,0 -0.1896,1.15361 -0.1896,1.15361 0,0 -0.3477,1.56452 -0.3477,1.56452 -0.2984,1.33502 -0.3641,1.83566 -0.3793,2.02278 -0.015,0.25287 0.01,0.49933 0.079,0.72698 0,0 0.1263,0.41081 0.1263,0.41081 0,0 -1.8647,0 -1.8647,0 0,0 -0.079,-0.23705 -0.079,-0.23705 -0.03,-0.11119 -0.022,-0.25278 -0.032,-0.37926 -0.354,0.21745 -0.7086,0.41029 -1.0272,0.52147 -0.4703,0.1619 -0.9583,0.25288 -1.4539,0.25288 -0.8596,0 -1.4963,-0.22378 -1.8806,-0.66369 -0.2932,-0.32363 -0.4267,-0.71933 -0.4267,-1.16943 0,-0.17192 0.023,-0.35017 0.063,-0.53729 0.086,-0.38437 0.2421,-0.74025 0.4899,-1.05886 0.2427,-0.31352 0.5297,-0.5714 0.8533,-0.75853 0.3135,-0.18712 0.6631,-0.31984 1.0272,-0.4109 0,0 1.1221,-0.18959 1.1221,-0.18959 0.8647,-0.10117 1.5101,-0.22694 1.9753,-0.36353 0.01,-0.0505 0.032,-0.11057 0.032,-0.11057 0.073,-0.32538 0.064,-0.56999 -0.016,-0.69532 -0.01,-0.008 -0.025,-0.0247 -0.032,-0.0317 -0.017,-0.0182 -0.043,-0.0467 -0.063,-0.0632 -0.1902,-0.15048 -0.5145,-0.22123 -0.9482,-0.22123 -0.4905,0 -0.8533,0.0802 -1.1061,0.23704 -0.2479,0.15672 -0.4773,0.44369 -0.6796,0.85337 0,0 -1.9121,0 -1.9121,0 0,0 0.1737,-0.37926 0.1737,-0.37926 0.2276,-0.52596 0.4988,-0.96218 0.8376,-1.29591 0.3389,-0.33373 0.7965,-0.59232 1.3275,-0.77435 0.4069,-0.1343 0.8513,-0.22342 1.3275,-0.25278 z m 8.0121,0 c 0.071,-0.009 0.1493,0 0.2212,0 0.4602,0 0.8914,0.13843 1.2959,0.42664 0,0 0.2371,0.17386 0.2371,0.17386 0,0 -0.9799,1.61188 -0.9799,1.61188 0,0 -0.2686,-0.18968 -0.2686,-0.18968 -0.1972,-0.12639 -0.3989,-0.18958 -0.6163,-0.18958 -0.1922,0 -0.3819,0.0683 -0.5689,0.18958 -0.1922,0.12649 -0.3319,0.29401 -0.4583,0.52157 -0.2073,0.38937 -0.3679,0.8255 -0.4741,1.29581 0,0 -0.8692,3.88755 -0.8692,3.88755 0,0 -1.8332,0 -1.8332,0 0,0 1.691,-7.58542 1.691,-7.58542 0,0 1.7067,0 1.7067,0 0,0 -0.043,0.23003 -0.063,0.31599 0.081,-0.0607 0.1612,-0.14407 0.2371,-0.18959 0.241,-0.14617 0.488,-0.2374 0.7427,-0.26861 z m 5.4205,0 c 0.1102,-0.008 0.219,0 0.3318,0 1.0317,0 1.8174,0.36151 2.3231,1.07459 0.3236,0.46013 0.4899,1.02907 0.4899,1.70672 0,0.37417 -0.062,0.7769 -0.1581,1.21681 0,0 -0.1264,0.55311 -0.1264,0.55311 0,0 -4.641,0 -5.1518,0 -0.01,0.10618 -0.032,0.22 -0.032,0.31607 0,0.39447 0.086,0.70482 0.2528,0.93238 0.026,0.0354 0.066,0.0791 0.095,0.11066 0.017,0.0176 0.046,0.0467 0.063,0.0632 0.2261,0.20549 0.5338,0.31606 0.9166,0.31606 0.3742,0 0.7029,-0.1031 1.0113,-0.30024 0.2934,-0.18713 0.569,-0.48614 0.8219,-0.90083 0,0 1.9754,0 1.9754,0 0,0 -0.1897,0.37926 -0.1897,0.37926 -0.3743,0.75861 -0.9014,1.35023 -1.5487,1.77001 -0.6574,0.4197 -1.4267,0.64787 -2.2915,0.64787 -1.1175,0 -1.9336,-0.36151 -2.4494,-1.07459 -0.5108,-0.69788 -0.6315,-1.66251 -0.3635,-2.87616 0.2731,-1.23393 0.8022,-2.22002 1.5961,-2.90778 0.7161,-0.61702 1.5358,-0.95928 2.4337,-1.02714 z m -27.6713,0.14221 c 0,0 1.8806,0 1.8806,0 0,0 0.232,4.50131 0.2371,4.56706 0.076,-0.1612 0.1347,-0.29682 0.1422,-0.31607 0,0 2.0702,-4.25099 2.0702,-4.25099 0,0 1.7226,0 1.7226,0 0,0 0.158,4.44691 0.158,4.47222 0.051,-0.091 2.3546,-4.47222 2.3546,-4.47222 0,0 1.8647,0 1.8647,0 0,0 -4.1087,7.58542 -4.1087,7.58542 0,0 -1.6909,0 -1.6909,0 0,0 -0.1638,-4.11316 -0.1739,-4.34582 -0.6979,1.43117 -2.1176,4.34582 -2.1176,4.34582 0,0 -1.7384,0 -1.7384,0 0,0 -0.6005,-7.58542 -0.6005,-7.58542 z m -44.1538,1.43803 c -0.4356,0.0184 -0.8313,0.17544 -1.2011,0.47411 -0.2933,0.23265 -0.4911,0.55188 -0.6479,0.90073 0,9e-5 3.1132,0 3.1132,0 0.01,-0.0555 0.016,-0.12323 0.016,-0.17377 0,-0.28828 -0.051,-0.51206 -0.1422,-0.66377 -0.2225,-0.36405 -0.5525,-0.5373 -1.043,-0.5373 -0.029,0 -0.066,-0.002 -0.095,0 z m 8.2334,0 c -0.4356,0.0184 -0.8312,0.17544 -1.2011,0.47411 -0.2932,0.23265 -0.486,0.55188 -0.6479,0.90073 0,9e-5 3.1132,0 3.1132,0 0.01,-0.0555 0.016,-0.12323 0.016,-0.17377 0,-0.28828 -0.046,-0.51206 -0.1422,-0.66377 -0.044,-0.0739 -0.104,-0.14748 -0.158,-0.20541 -0.2113,-0.21815 -0.5018,-0.33189 -0.8851,-0.33189 -0.029,0 -0.066,-0.002 -0.095,0 z m 63.6865,0 c -0.448,0.0138 -0.8663,0.16551 -1.2485,0.47411 -0.2882,0.23265 -0.4861,0.55188 -0.6479,0.90073 0,9e-5 3.0974,0 3.0974,0 0.01,-0.0555 0.016,-0.12323 0.016,-0.17377 0,-0.28828 -0.046,-0.51206 -0.1422,-0.66377 -0.2175,-0.35905 -0.5525,-0.5322 -1.0431,-0.5373 -0.014,1.8e-4 -0.017,-4.3e-4 -0.032,0 z m -41.4041,0.0317 c -0.418,0.0496 -0.8068,0.24039 -1.1694,0.56885 -0.4349,0.39447 -0.7504,1.01394 -0.9324,1.8332 -0.076,0.34384 -0.1107,0.63784 -0.1107,0.90074 0,0.35904 0.069,0.641 0.2055,0.85335 0.036,0.0546 0.085,0.11216 0.1264,0.15804 0.2248,0.23872 0.5387,0.36353 0.9324,0.36353 0.5107,0 0.9608,-0.19029 1.3906,-0.58476 0.4349,-0.39948 0.7453,-1.02528 0.9324,-1.86476 0.1719,-0.76862 0.1479,-1.34257 -0.095,-1.70672 -0.2326,-0.35395 -0.5727,-0.52147 -1.043,-0.52147 -0.08,0 -0.1596,-0.009 -0.237,0 z m 28.5562,2.76549 c -0.4298,0.11637 -0.9116,0.21428 -1.5487,0.30034 -0.4754,0.0708 -0.8142,0.14537 -1.0114,0.22122 -0.1719,0.0708 -0.3104,0.16876 -0.4267,0.30025 -0.1112,0.12639 -0.1858,0.25911 -0.2213,0.4109 -0.01,0.0607 -0.016,0.12323 -0.016,0.17377 0,0.004 -10e-5,0.0118 0,0.0158 6e-4,0.012 0,0.0358 0,0.0474 0,0.0229 0.01,0.0576 0.016,0.0789 0,0.007 0.013,0.0248 0.016,0.0317 0.01,0.0136 0.01,0.0345 0.016,0.0474 0.01,0.0128 0.023,0.035 0.032,0.0473 0.013,0.0182 0.031,0.0461 0.048,0.0632 0.1264,0.1416 0.3786,0.2054 0.7427,0.2054 0.3995,0 0.7838,-0.0758 1.1378,-0.25278 0.349,-0.172 0.6302,-0.42866 0.8376,-0.72697 0.1517,-0.21235 0.2731,-0.53923 0.3793,-0.96402 z m -96.52776,-12.67081 42.41226,-43.79004 6.9261,0 -10.2406,43.79004 -5.6967,0 2.9077,-12.60532 -17.7799,0 -12.0825,12.60532 -6.44636,0 m 22.84956,-17.11576 14.5417,0 2.683,-10.99231 c 1.0828,-4.36105 2.1251,-7.99528 3.1269,-10.9027 -2.002,2.50914 -4.6507,5.48623 -7.946,8.93125 l -12.4056,12.96372"
         style="fill:#663366;fill-opacity:1;fill-rule:evenodd;stroke:none"
         id="path2945"
         inkscape:connector-curvature="0" />
    </g>
  </g>
</svg>
