<?xml version="1.0" encoding="UTF-8" standalone="no"?>
<svg
   xmlns:dc="http://purl.org/dc/elements/1.1/"
   xmlns:cc="http://creativecommons.org/ns#"
   xmlns:rdf="http://www.w3.org/1999/02/22-rdf-syntax-ns#"
   xmlns:svg="http://www.w3.org/2000/svg"
   xmlns="http://www.w3.org/2000/svg"
   xmlns:sodipodi="http://sodipodi.sourceforge.net/DTD/sodipodi-0.dtd"
   xmlns:inkscape="http://www.inkscape.org/namespaces/inkscape"
   inkscape:export-ydpi="96"
   inkscape:export-xdpi="96"
   inkscape:export-filename="C:\Users\Roland Geider\GitHub\wger\wger\core\static\images\logos\logo-bg-white.png"
   inkscape:version="1.0 (4035a4fb49, 2020-05-01)"
   sodipodi:docname="logo-bg-white.svg"
   id="svg8"
   version="1.1"
   viewBox="0 0 88.635406 99.865158"
   height="99.865158mm"
   width="88.635406mm">
  <defs
     id="defs2" />
  <sodipodi:namedview
     fit-margin-bottom="0"
     fit-margin-right="0"
     fit-margin-left="0"
     fit-margin-top="0"
     inkscape:window-maximized="0"
     inkscape:window-y="0"
     inkscape:window-x="2917"
     inkscape:window-height="1228"
     inkscape:window-width="1826"
     showgrid="false"
     inkscape:document-rotation="0"
     inkscape:current-layer="layer1"
     inkscape:document-units="mm"
     inkscape:cy="150.2233"
     inkscape:cx="191.0133"
     inkscape:zoom="0.7"
     inkscape:pageshadow="2"
     inkscape:pageopacity="0.0"
     borderopacity="1.0"
     bordercolor="#666666"
     pagecolor="#ffffff"
     id="base" />
  <metadata
     id="metadata5">
    <rdf:RDF>
      <cc:Work
         rdf:about="">
        <dc:format>image/svg+xml</dc:format>
        <dc:type
           rdf:resource="http://purl.org/dc/dcmitype/StillImage" />
        <dc:title></dc:title>
      </cc:Work>
    </rdf:RDF>
  </metadata>
  <g
     transform="translate(-58.494824,-100.22817)"
     id="layer1"
     inkscape:groupmode="layer"
     inkscape:label="Ebene 1">
    <path
       sodipodi:nodetypes="sssscccsccssscccssccssss"
       id="path906"
       d="m 100.0344,199.68053 c -0.7276,-0.2674 -7.395096,-4.00358 -14.816666,-8.3026 -7.42156,-4.29903 -15.6964,-9.09072 -18.388541,-10.64822 -5.401259,-3.12481 -6.453989,-3.98624 -7.57495,-6.19849 l -0.759419,-1.49873 v -22.75416 -22.75417 l 0.7458,-1.51878 c 1.22023,-2.48492 2.23687,-3.32357 7.85315,-6.47833 8.92599,-5.24627 18.53949,-10.5818 27.43239,-15.8388 5.808566,-3.43864 7.330416,-3.906321 10.242876,-3.14772 1.85452,0.48304 38.32682,21.44964 39.81953,22.8908 0.53222,0.51384 1.32182,1.64493 1.75467,2.51354 l 0.787,1.57929 v 22.62187 22.62188 l -0.76974,1.667 c -0.78216,1.69393 -2.46738,3.49163 -4.01558,4.28362 -0.42402,0.2169 -1.39632,0.7863 -2.16067,1.26534 -8.87863,5.29133 -18.68816,10.38196 -26.25923,15.14385 -0.21828,0.14187 -1.05171,0.61703 -1.85208,1.05592 -0.80036,0.43888 -1.81239,1.00838 -2.24896,1.26555 -4.05157,2.38666 -4.40092,2.52862 -6.458,2.6242 -1.47867,0.0687 -2.35772,-0.0349 -3.33158,-0.39286 z"
       style="fill:#ffffff;fill-opacity:1;stroke:none;stroke-width:0.264583;stroke-opacity:1"
       inkscape:export-xdpi="96"
       inkscape:export-ydpi="96" />
    <path
       inkscape:export-ydpi="96"
       inkscape:export-xdpi="96"
       d="m 82.025187,131.97179 v 2.59838 h -6.49607 v 2.59849 h -6.496069 v 9.09446 h -2.598384 v 7.79526 h 2.598384 v 9.09446 h 6.496069 v 2.59838 h 6.49607 v 2.59849 h 9.094453 v -14.29133 h 23.38578 v 14.29133 h 9.09445 v -2.59849 h 6.49607 v -2.59838 h 6.49607 v -9.09446 h 2.59839 v -7.79526 h -2.59839 v -9.09446 h -6.49607 v -2.59849 h -6.49607 v -2.59838 h -9.09445 v 14.29133 H 91.11964 v -14.29133 z m 2.598383,2.59838 h 3.897582 v 31.18105 H 84.62357 Z m 32.48023,0 h 3.89768 v 31.18105 h -3.89768 z m -38.976299,2.59849 h 3.897686 v 25.98418 h -3.897686 z m 45.472369,0 h 3.89758 v 25.98418 h -3.89758 z m -51.968426,2.59839 h 3.897673 v 20.78739 h -3.897673 z m 58.464496,0 h 3.89758 v 20.78739 h -3.89758 z m -38.9763,9.09445 h 23.38578 v 2.5984 H 91.11964 Z"
       fill="#000000"
       id="path1003"
       style="fill:#2a4c7d;fill-opacity:1;stroke-width:2.59842" />
  </g>
</svg>
