<?xml version="1.0" encoding="UTF-8" standalone="no"?>
<svg
   xmlns:dc="http://purl.org/dc/elements/1.1/"
   xmlns:cc="http://creativecommons.org/ns#"
   xmlns:rdf="http://www.w3.org/1999/02/22-rdf-syntax-ns#"
   xmlns:svg="http://www.w3.org/2000/svg"
   xmlns="http://www.w3.org/2000/svg"
   xmlns:sodipodi="http://sodipodi.sourceforge.net/DTD/sodipodi-0.dtd"
   xmlns:inkscape="http://www.inkscape.org/namespaces/inkscape"
   inkscape:export-ydpi="41.09663"
   inkscape:export-xdpi="41.09663"
   inkscape:export-filename="C:\Users\Roland Geider\GitHub\wger\wger\core\static\images\logos\logo-white.png"
   sodipodi:docname="logo-white.svg"
   inkscape:version="1.0 (4035a4fb49, 2020-05-01)"
   id="svg8"
   version="1.1"
   viewBox="0 0 89 89"
   height="89mm"
   width="89mm">
  <defs
     id="defs2" />
  <sodipodi:namedview
     inkscape:pagecheckerboard="true"
     fit-margin-bottom="0"
     fit-margin-right="0"
     fit-margin-left="0"
     fit-margin-top="0"
     inkscape:window-maximized="1"
     inkscape:window-y="-9"
     inkscape:window-x="2391"
     inkscape:window-height="1271"
     inkscape:window-width="2400"
     showgrid="false"
     inkscape:document-rotation="0"
     inkscape:current-layer="layer1"
     inkscape:document-units="mm"
     inkscape:cy="253.85951"
     inkscape:cx="237.34363"
     inkscape:zoom="1.4"
     inkscape:pageshadow="2"
     inkscape:pageopacity="0.0"
     borderopacity="1.0"
     bordercolor="#666666"
     pagecolor="#ffffff"
     id="base"
     showguides="true"
     inkscape:guide-bbox="true" />
  <metadata
     id="metadata5">
    <rdf:RDF>
      <cc:Work
         rdf:about="">
        <dc:format>image/svg+xml</dc:format>
        <dc:type
           rdf:resource="http://purl.org/dc/dcmitype/StillImage" />
        <dc:title></dc:title>
      </cc:Work>
    </rdf:RDF>
  </metadata>
  <g
     transform="translate(-77.424902,-67.793738)"
     id="layer1"
     inkscape:groupmode="layer"
     inkscape:label="Ebene 1">
    <path
       transform="matrix(0.26458333,0,0,0.26458333,77.424902,67.793738)"
       d="M 167.98633 1.4199219 C 160.9544 1.3236681 153.86335 4.5227511 137.98242 13.611328 C 105.5642 32.13751 70.519298 47.210858 37.980469 65.699219 C 17.506866 76.816903 17.001413 77.16049 9.7988281 86.298828 C 8.1030524 88.450358 6.6328125 91.88173 6.6328125 93.882812 L 6.6328125 167.88477 L 6.6328125 241.88477 C 6.6328125 243.87253 9.2998619 248.05782 10.222656 249.81836 C 14.337726 257.66935 17.325855 257.99957 37.015625 269.01172 C 80.668016 293.42818 115.35055 314.08175 158.0625 333.93164 C 161.61265 335.19291 164.81674 335.5583 170.20703 335.31641 C 177.70595 334.97957 178.97845 334.47921 193.74805 326.06836 C 195.33953 325.1621 199.02958 323.15412 201.94727 321.60742 C 234.19661 304.48548 268.88931 285.37698 304.42383 266.38281 C 307.21017 264.69469 311.69345 261.88128 313.12109 260.91406 C 318.6386 257.176 323.16782 252.21648 326.93945 246.82812 C 328.1839 245.05024 329.74414 243.12325 329.74414 240.95312 L 329.74414 167.41797 L 329.74414 93.882812 C 329.74414 91.795648 327.92617 88.700174 326.47461 86.396484 C 324.84526 83.810573 322.42061 81.269809 320.48047 79.458984 C 315.03893 74.380195 182.08079 4.2218116 175.32031 2.5195312 C 172.66604 1.851187 170.3303 1.4520065 167.98633 1.4199219 z M 97.138672 106.01953 L 128.22266 106.01953 L 128.22266 154.86719 L 208.1543 154.86719 L 208.1543 106.01953 L 239.24023 106.01953 L 239.24023 114.90039 L 261.44336 114.90039 L 261.44336 123.7832 L 283.64648 123.7832 L 283.64648 154.86719 L 292.52734 154.86719 L 292.52734 181.51172 L 283.64648 181.51172 L 283.64648 212.5957 L 261.44336 212.5957 L 261.44336 221.47656 L 239.24023 221.47656 L 239.24023 230.35742 L 208.1543 230.35742 L 208.1543 181.51172 L 128.22266 181.51172 L 128.22266 230.35742 L 97.138672 230.35742 L 97.138672 221.47656 L 74.935547 221.47656 L 74.935547 212.5957 L 52.732422 212.5957 L 52.732422 181.51172 L 43.851562 181.51172 L 43.851562 154.86719 L 52.732422 154.86719 L 52.732422 123.7832 L 74.935547 123.7832 L 74.935547 114.90039 L 97.138672 114.90039 L 97.138672 106.01953 z M 106.01953 114.90039 L 106.01953 221.47656 L 119.3418 221.47656 L 119.3418 114.90039 L 106.01953 114.90039 z M 217.03516 114.90039 L 217.03516 221.47656 L 230.35742 221.47656 L 230.35742 114.90039 L 217.03516 114.90039 z M 83.816406 123.7832 L 83.816406 212.5957 L 97.138672 212.5957 L 97.138672 123.7832 L 83.816406 123.7832 z M 239.24023 123.7832 L 239.24023 212.5957 L 252.56055 212.5957 L 252.56055 123.7832 L 239.24023 123.7832 z M 61.613281 132.66406 L 61.613281 203.71484 L 74.935547 203.71484 L 74.935547 132.66406 L 61.613281 132.66406 z M 261.44336 132.66406 L 261.44336 203.71484 L 274.76367 203.71484 L 274.76367 132.66406 L 261.44336 132.66406 z M 128.22266 163.74805 L 128.22266 172.62891 L 208.1543 172.62891 L 208.1543 163.74805 L 128.22266 163.74805 z "
       style="fill:#ffffff;fill-opacity:1;stroke:none;stroke-width:0.948329;stroke-opacity:1"
       id="path28-3" />
  </g>
</svg>
