<?xml version="1.0" encoding="UTF-8" standalone="no"?>
<svg
   xmlns:dc="http://purl.org/dc/elements/1.1/"
   xmlns:cc="http://creativecommons.org/ns#"
   xmlns:rdf="http://www.w3.org/1999/02/22-rdf-syntax-ns#"
   xmlns:svg="http://www.w3.org/2000/svg"
   xmlns="http://www.w3.org/2000/svg"
   xmlns:sodipodi="http://sodipodi.sourceforge.net/DTD/sodipodi-0.dtd"
   xmlns:inkscape="http://www.inkscape.org/namespaces/inkscape"
   inkscape:export-ydpi="96"
   inkscape:export-xdpi="96"
   inkscape:export-filename="C:\Users\Roland Geider\GitHub\wger\wger\core\static\images\logos\logo-name.png"
   sodipodi:docname="logo-name.svg"
   inkscape:version="1.0 (4035a4fb49, 2020-05-01)"
   id="svg8"
   version="1.1"
   viewBox="0 0 210 210"
   height="210mm"
   width="210mm">
  <defs
     id="defs2" />
  <sodipodi:namedview
     inkscape:snap-text-baseline="false"
     inkscape:window-maximized="0"
     inkscape:window-y="36"
     inkscape:window-x="2495"
     inkscape:window-height="1030"
     inkscape:window-width="1922"
     showgrid="false"
     inkscape:document-rotation="0"
     inkscape:current-layer="layer1"
     inkscape:document-units="mm"
     inkscape:cy="474.28251"
     inkscape:cx="196.18454"
     inkscape:zoom="0.7"
     inkscape:pageshadow="2"
     inkscape:pageopacity="0.0"
     borderopacity="1.0"
     bordercolor="#666666"
     pagecolor="#ffffff"
     id="base" />
  <metadata
     id="metadata5">
    <rdf:RDF>
      <cc:Work
         rdf:about="">
        <dc:format>image/svg+xml</dc:format>
        <dc:type
           rdf:resource="http://purl.org/dc/dcmitype/StillImage" />
        <dc:title></dc:title>
      </cc:Work>
    </rdf:RDF>
  </metadata>
  <g
     id="layer1"
     inkscape:groupmode="layer"
     inkscape:label="Ebene 1">
    <g
       transform="matrix(1.3222021,0,0,1.3222021,-56.143257,-77.934949)"
       id="g18">
      <path
         style="fill:#2a4c7d;fill-opacity:1;stroke:#2a4c7d;stroke-width:0.264583;stroke-opacity:1"
         d="m 119.09677,165.78949 c -11.71667,-5.63261 -21.230567,-11.4932 -33.205207,-18.42164 -5.40126,-3.12481 -6.45399,-3.98624 -7.57495,-6.19849 l -0.75942,-1.49873 V 116.91647 94.162297 l 0.7458,-1.51878 c 1.22023,-2.48492 2.23687,-3.32357 7.85315,-6.47833 8.92599,-5.24627 18.539497,-9.52348 27.432397,-14.78048 5.80857,-3.43864 7.33041,-3.90632 10.24287,-3.14772 1.85452,0.48304 38.32683,20.39132 39.81954,21.83248 0.53222,0.51384 1.32182,1.64493 1.75467,2.51354 l 0.787,1.57929 v 22.621873 22.62188 l -0.76974,1.667 c -0.78216,1.69393 -2.46738,3.49163 -4.01558,4.28362 -0.42402,0.2169 -1.39632,0.7863 -2.16067,1.26533 -9.74775,5.38979 -19.26473,10.81206 -28.11132,15.6706 -0.80036,0.43888 -1.81238,1.00838 -2.24895,1.26555 -4.05157,2.38666 -4.40093,2.52862 -6.45801,2.6242 -1.47866,0.0687 -2.35772,-0.0349 -3.33158,-0.39286 z"
         id="path28-3"
         sodipodi:nodetypes="ccscccsccssscccssccssc"
         inkscape:export-xdpi="96"
         inkscape:export-ydpi="96" />
      <path
         d="m 101.08756,98.610518 v 2.598382 h -6.496067 v 2.59849 h -6.49607 v 9.09446 h -2.59838 v 7.79526 h 2.59838 v 9.09446 h 6.49607 v 2.59838 h 6.496067 v 2.59849 h 9.09445 v -14.29133 h 23.38578 v 14.29133 h 9.09446 v -2.59849 h 6.49607 v -2.59838 h 6.49607 v -9.09446 h 2.59838 v -7.79526 h -2.59838 v -9.09446 h -6.49607 v -2.59849 h -6.49607 v -2.598382 h -9.09446 V 112.90185 H 110.18201 V 98.610518 Z m 2.59839,2.598382 h 3.89758 v 31.18105 h -3.89758 z m 32.48023,0 h 3.89768 v 31.18105 h -3.89768 z m -38.976304,2.59849 h 3.897684 v 25.98418 h -3.897684 z m 45.472374,0 h 3.89758 v 25.98418 h -3.89758 z m -51.968427,2.59839 h 3.89767 v 20.78739 h -3.89767 z m 58.464497,0 h 3.89758 v 20.78739 h -3.89758 z m -38.97631,9.09445 h 23.38578 v 2.5984 h -23.38578 z"
         fill="#000000"
         id="path981"
         style="fill:#ffffff;stroke-width:2.59842"
         inkscape:export-xdpi="96"
         inkscape:export-ydpi="96" />
    </g>
    <text
       id="text14"
       y="185.91051"
       x="47.054054"
       style="font-size:47.2144px;line-height:1.25;font-family:'Open Sans';-inkscape-font-specification:'Open Sans';stroke-width:1.18036"
       xml:space="preserve"><tspan
         style="stroke-width:1.18036"
         y="185.91051"
         x="47.054054"
         id="tspan12"
         sodipodi:role="line">wger</tspan></text>
  </g>
</svg>
