<?xml version="1.0" encoding="UTF-8" standalone="no"?>
<svg
   xmlns:dc="http://purl.org/dc/elements/1.1/"
   xmlns:cc="http://creativecommons.org/ns#"
   xmlns:rdf="http://www.w3.org/1999/02/22-rdf-syntax-ns#"
   xmlns:svg="http://www.w3.org/2000/svg"
   xmlns="http://www.w3.org/2000/svg"
   xmlns:sodipodi="http://sodipodi.sourceforge.net/DTD/sodipodi-0.dtd"
   xmlns:inkscape="http://www.inkscape.org/namespaces/inkscape"
   width="90mm"
   height="90mm"
   viewBox="0 0 89.999999 90"
   version="1.1"
   id="svg8"
   sodipodi:docname="logo-bg-white.svg"
   inkscape:version="1.0 (4035a4fb49, 2020-05-01)"
   inkscape:export-filename="C:\Users\Roland Geider\GitHub\wger\wger\core\static\images\logos\logo-bg-white.png"
   inkscape:export-xdpi="96"
   inkscape:export-ydpi="96">
  <defs
     id="defs2" />
  <sodipodi:namedview
     id="base"
     pagecolor="#ffffff"
     bordercolor="#666666"
     borderopacity="1.0"
     inkscape:pageopacity="0.0"
     inkscape:pageshadow="2"
     inkscape:zoom="0.7"
     inkscape:cx="191.0133"
     inkscape:cy="150.2233"
     inkscape:document-units="mm"
     inkscape:current-layer="layer1"
     inkscape:document-rotation="0"
     showgrid="false"
     inkscape:window-width="1826"
     inkscape:window-height="1228"
     inkscape:window-x="2917"
     inkscape:window-y="0"
     inkscape:window-maximized="0"
     fit-margin-top="0"
     fit-margin-left="0"
     fit-margin-right="0"
     fit-margin-bottom="0" />
  <metadata
     id="metadata5">
    <rdf:RDF>
      <cc:Work
         rdf:about="">
        <dc:format>image/svg+xml</dc:format>
        <dc:type
           rdf:resource="http://purl.org/dc/dcmitype/StillImage" />
        <dc:title></dc:title>
      </cc:Work>
    </rdf:RDF>
  </metadata>
  <g
     inkscape:label="Ebene 1"
     inkscape:groupmode="layer"
     id="layer1"
     transform="translate(-58.494824,-100.22817)">
    <path
       style="fill:#2a4c7d;fill-opacity:1;stroke-width:2.59842"
       id="path1003"
       fill="#000000"
       d="m 82.707479,127.03921 v 2.59838 h -6.49607 v 2.59849 H 69.71534 v 9.09446 h -2.598384 v 7.79526 h 2.598384 v 9.09446 h 6.496069 v 2.59838 h 6.49607 v 2.59849 h 9.094453 V 149.1258 h 23.385778 v 14.29133 h 9.09445 v -2.59849 h 6.49607 v -2.59838 h 6.49607 v -9.09446 h 2.59839 v -7.79526 h -2.59839 v -9.09446 h -6.49607 v -2.59849 h -6.49607 v -2.59838 h -9.09445 v 14.29133 H 91.801932 v -14.29133 z m 2.598383,2.59838 h 3.897582 v 31.18105 h -3.897582 z m 32.480228,0 h 3.89768 v 31.18105 h -3.89768 z m -38.976297,2.59849 h 3.897686 v 25.98418 h -3.897686 z m 45.472367,0 h 3.89758 v 25.98418 h -3.89758 z m -51.968424,2.59839 h 3.897673 v 20.78739 h -3.897673 z m 58.464494,0 h 3.89758 v 20.78739 h -3.89758 z m -38.976298,9.09445 h 23.385778 v 2.5984 H 91.801932 Z"
       inkscape:export-xdpi="96"
       inkscape:export-ydpi="96" />
  </g>
</svg>
