<svg width="125" height="48" viewBox="0 0 125 48" fill="none" xmlns="http://www.w3.org/2000/svg">
<path fill-rule="evenodd" clip-rule="evenodd" d="M25.7941 0.448339C24.6721 -0.149446 23.3279 -0.149447 22.2059 0.448339L3.03406 10.6625C1.7825 11.3293 1 12.6358 1 14.0585V33.9415C1 35.3642 1.78249 36.6707 3.03406 37.3375L22.2059 47.5517C23.3279 48.1494 24.6721 48.1494 25.7941 47.5517L44.9659 37.3375C46.2175 36.6707 47 35.3642 47 33.9415V14.0585C47 12.6358 46.2175 11.3293 44.9659 10.6625L25.7941 0.448339ZM17 15V22H31V15H35V16H38V17H41V22H42V26H41V31H38V32H35V33H31V26H17V33H13V32H10V31H7V26H6V22H7V17H10V16H13V15H17ZM14 16H16V32H14V16ZM17 25V23H31V25H17ZM34 32H32V16H34V32ZM10 18V30H8V18H10ZM11 31V17H13V31H11ZM38 30V18H40V30H38ZM37 17V31H35V17H37Z" fill="#2A4C7D"/>
<path d="M57.9499 34H61.4519L64.0019 24.616C64.1719 23.936 64.4439 22.814 64.5459 22.236C64.6139 22.814 64.9199 23.936 65.0899 24.616L67.6399 34H71.1759L75.9359 16.626H72.0259L69.7479 26.248C69.5779 26.962 69.4419 27.71 69.3399 28.288C69.2379 27.71 69.0679 26.928 68.8979 26.248L66.3819 16.626H62.7439L60.1939 26.248C60.0239 26.928 59.8539 27.71 59.7519 28.288C59.6499 27.71 59.5139 26.962 59.3439 26.248L57.0999 16.626H53.1899L57.9499 34Z" fill="#2A4C7D"/>
<path d="M84.0711 40.8C90.0551 40.358 92.2651 38.012 92.2651 32.266V16.626H88.2871V17.68C87.4711 16.864 86.1791 16.218 84.3771 16.218C80.1271 16.218 77.1691 19.618 77.1691 25.296C77.1691 31.348 80.2631 34.408 84.3431 34.408C85.9071 34.408 87.2671 33.966 88.2871 32.844V33.83C88.2871 36.176 86.8591 37.264 81.9631 37.604L84.0711 40.8ZM85.0231 30.6C82.5411 30.6 81.1471 28.492 81.1471 25.296C81.1471 21.862 82.5411 19.992 85.0231 19.992C86.5531 19.992 87.6751 20.808 88.2871 21.692V28.9C87.5731 29.988 86.4511 30.6 85.0231 30.6Z" fill="#2A4C7D"/>
<path d="M103.151 34.408C105.939 34.408 107.979 33.32 109.339 31.688L106.823 29.104C105.905 30.328 104.681 30.906 103.151 30.906C101.077 30.906 99.2065 29.376 99.0705 26.826H110.597C110.699 26.044 110.733 25.092 110.733 24.378C110.733 18.802 107.333 16.218 103.151 16.218C98.2885 16.218 95.1265 19.618 95.1265 25.296C95.1265 31.008 98.2205 34.408 103.151 34.408ZM99.1045 23.528C99.3085 20.808 101.009 19.72 103.151 19.72C104.953 19.72 106.619 20.876 106.789 23.528H99.1045Z" fill="#2A4C7D"/>
<path d="M113.403 34H117.381V24.276C117.381 20.978 119.115 20.128 120.645 20.128C121.971 20.128 122.889 20.536 123.603 21.046L124.181 17.408C123.297 16.66 122.243 16.218 120.951 16.218C119.217 16.218 118.061 17 117.381 18.428V16.626H113.403V34Z" fill="#2A4C7D"/>
</svg>
