<?xml version="1.0" encoding="UTF-8" standalone="no"?>
<!-- Created with Inkscape (http://www.inkscape.org/) -->
<svg xmlns:dc="http://purl.org/dc/elements/1.1/" xmlns:cc="http://creativecommons.org/ns#" xmlns:rdf="http://www.w3.org/1999/02/22-rdf-syntax-ns#" xmlns:svg="http://www.w3.org/2000/svg" xmlns="http://www.w3.org/2000/svg" xmlns:sodipodi="http://sodipodi.sourceforge.net/DTD/sodipodi-0.dtd" xmlns:inkscape="http://www.inkscape.org/namespaces/inkscape" width="697.35126" height="194.94501" id="svg4373" version="1.1" inkscape:version="0.48.1 r9760" sodipodi:docname="New document 7">
  <defs id="defs4375">
    <filter inkscape:collect="always" id="filter4952" x="-0.070663869" width="1.1413277" y="-0.39758849" height="1.795177" color-interpolation-filters="sRGB">
      <feGaussianBlur inkscape:collect="always" stdDeviation="17.989844" id="feGaussianBlur4954"/>
    </filter>
  </defs>
  <sodipodi:namedview id="base" pagecolor="#ffffff" bordercolor="#666666" borderopacity="1.0" inkscape:pageopacity="0.0" inkscape:pageshadow="2" inkscape:zoom="0.35" inkscape:cx="247.42621" inkscape:cy="-328.24459" inkscape:document-units="px" inkscape:current-layer="layer1" showgrid="false" fit-margin-top="0" fit-margin-left="0" fit-margin-right="0" fit-margin-bottom="0" inkscape:window-width="1230" inkscape:window-height="776" inkscape:window-x="50" inkscape:window-y="24" inkscape:window-maximized="1"/>
  <g inkscape:label="Layer 1" inkscape:groupmode="layer" id="layer1" transform="translate(-51.105626,-9.1725929)">
    <g id="g4956">
      <path inkscape:connector-curvature="0" id="rect4920" d="m 159.75,52.348217 0,108.593753 23.40625,0 0,-108.593753 -23.40625,0 z m 456.625,0 0,108.593753 23.4375,0 0,-108.593753 -23.4375,0 z m -478.71875,12.78125 0,83.031253 17.03125,0 0,-83.031253 -17.03125,0 z m 50.5625,0 0,83.031253 17.03125,0 0,-83.031253 -17.03125,0 z m 406.09375,0 0,83.031253 17.03125,0 0,-83.031253 -17.03125,0 z m 50.5625,0 0,83.031253 17.03125,0 0,-83.031253 -17.03125,0 z m -550.59375,31.9375 0,19.156253 38.3125,0 0,-19.156253 -38.3125,0 z m 116.03125,0 0,19.156253 378.9375,0 0,-19.156253 -378.9375,0 z m 456.625,0 0,19.156253 38.34375,0 0,-19.156253 -38.34375,0 z" style="opacity:0.7;fill:#000000;fill-opacity:1;stroke:none;filter:url(#filter4952)"/>
      <g transform="matrix(0.74509803,0,0,0.74509803,132.61035,-139.93289)" id="g4907">
        <rect style="fill:#000000;fill-opacity:1;stroke:none" id="rect4381" width="508.57144" height="25.714285" x="104.28571" y="318.07648"/>
        <rect style="fill:#000000;fill-opacity:1;stroke:none" id="rect4891" width="31.428572" height="145.71428" x="36.428577" y="258.07648"/>
        <rect y="275.21933" x="74.64286" height="111.42857" width="22.857143" id="rect4893" style="fill:#000000;fill-opacity:1;stroke:none"/>
        <rect style="fill:#000000;fill-opacity:1;stroke:none" id="rect4895" width="22.857143" height="111.42857" x="6.7857208" y="275.21933"/>
        <rect y="318.07648" x="-51.428577" height="25.714285" width="51.428585" id="rect4897" style="fill:#000000;fill-opacity:1;stroke:none"/>
        <rect y="258.07648" x="649.28577" height="145.71428" width="31.428572" id="rect4899" style="fill:#000000;fill-opacity:1;stroke:none"/>
        <rect style="fill:#000000;fill-opacity:1;stroke:none" id="rect4901" width="22.857143" height="111.42857" x="687.50006" y="275.21933"/>
        <rect y="275.21933" x="619.64288" height="111.42857" width="22.857143" id="rect4903" style="fill:#000000;fill-opacity:1;stroke:none"/>
        <rect style="fill:#000000;fill-opacity:1;stroke:none" id="rect4905" width="51.428585" height="25.714285" x="717.14294" y="318.07648"/>
      </g>
    </g>
  </g>
  <metadata>
    <rdf:RDF>
      <cc:Work>
        <dc:format>image/svg+xml</dc:format>
        <dc:type rdf:resource="http://purl.org/dc/dcmitype/StillImage"/>
        <cc:license rdf:resource="http://creativecommons.org/licenses/publicdomain/"/>
        <dc:publisher>
          <cc:Agent rdf:about="http://openclipart.org/">
            <dc:title>Open Clip Art Library</dc:title>
          </cc:Agent>
        </dc:publisher>
        <dc:title>barbell</dc:title>
        <dc:date>2011-05-28T06:02:08</dc:date>
        <dc:description>Black and white barbell</dc:description>
        <dc:source>http://openclipart.org/detail/140947/barbell-by-gsagri04</dc:source>
        <dc:creator>
          <cc:Agent>
            <dc:title>gsagri04</dc:title>
          </cc:Agent>
        </dc:creator>
        <dc:subject>
          <rdf:Bag>
            <rdf:li>Barbel</rdf:li>
            <rdf:li>black and white</rdf:li>
            <rdf:li>clip art</rdf:li>
            <rdf:li>clipart</rdf:li>
            <rdf:li>energy</rdf:li>
            <rdf:li>gym</rdf:li>
            <rdf:li>lifting</rdf:li>
            <rdf:li>muscle</rdf:li>
            <rdf:li>png</rdf:li>
            <rdf:li>power</rdf:li>
            <rdf:li>sport</rdf:li>
            <rdf:li>svg</rdf:li>
            <rdf:li>weight</rdf:li>
          </rdf:Bag>
        </dc:subject>
      </cc:Work>
      <cc:License rdf:about="http://creativecommons.org/licenses/publicdomain/">
        <cc:permits rdf:resource="http://creativecommons.org/ns#Reproduction"/>
        <cc:permits rdf:resource="http://creativecommons.org/ns#Distribution"/>
        <cc:permits rdf:resource="http://creativecommons.org/ns#DerivativeWorks"/>
      </cc:License>
    </rdf:RDF>
  </metadata>
</svg>