<?xml version="1.0" encoding="UTF-8" standalone="no"?>
<!-- Created with Inkscape (http://www.inkscape.org/) -->

<svg
   xmlns:dc="http://purl.org/dc/elements/1.1/"
   xmlns:cc="http://creativecommons.org/ns#"
   xmlns:rdf="http://www.w3.org/1999/02/22-rdf-syntax-ns#"
   xmlns:svg="http://www.w3.org/2000/svg"
   xmlns="http://www.w3.org/2000/svg"
   xmlns:sodipodi="http://sodipodi.sourceforge.net/DTD/sodipodi-0.dtd"
   xmlns:inkscape="http://www.inkscape.org/namespaces/inkscape"
   width="200"
   height="369.03"
   id="svg2"
   version="1.1"
   inkscape:version="0.48.3.1 r9886"
   sodipodi:docname="muscular_system_back.svg">
  <defs
     id="defs4" />
  <sodipodi:namedview
     id="base"
     pagecolor="#ffffff"
     bordercolor="#666666"
     borderopacity="1.0"
     inkscape:pageopacity="0.0"
     inkscape:pageshadow="2"
     inkscape:zoom="0.9899495"
     inkscape:cx="12.249371"
     inkscape:cy="222.62521"
     inkscape:document-units="px"
     inkscape:current-layer="layer1"
     showgrid="false"
     fit-margin-top="0"
     fit-margin-left="0"
     fit-margin-right="0"
     fit-margin-bottom="0"
     inkscape:window-width="663"
     inkscape:window-height="739"
     inkscape:window-x="902"
     inkscape:window-y="63"
     inkscape:window-maximized="0" />
  <metadata
     id="metadata7">
    <rdf:RDF>
      <cc:Work
         rdf:about="">
        <dc:format>image/svg+xml</dc:format>
        <dc:type
           rdf:resource="http://purl.org/dc/dcmitype/StillImage" />
        <dc:title></dc:title>
      </cc:Work>
    </rdf:RDF>
  </metadata>
  <g
     inkscape:label="Ebene 1"
     inkscape:groupmode="layer"
     id="layer1"
     transform="translate(-54.28571,-335.71492)">
    <path
       sodipodi:nodetypes="cssszaasc"
       inkscape:connector-curvature="0"
       id="path2992"
       d="m 130.51664,546.66621 c -1.66702,1.72091 -0.65329,16.56398 -1.14987,25.85942 -0.5571,10.42819 0.18952,12.74549 -0.9515,20.90616 -0.31685,2.26616 -0.30386,10.17471 -0.34789,13.55358 -0.0626,4.80798 2.35335,-0.5011 3.82493,-2.87947 1.47158,-2.37837 2.69818,-7.33515 3.36845,-11.16394 1.27278,-7.27057 1.14177,-14.73063 1.18563,-22.11163 0.0476,-8.01178 0.20419,-20.55143 -1.00165,-24.01487 -1.58244,-4.54509 -4.72596,-0.44295 -4.9281,-0.14925 z"
       style="opacity:0.52424239;fill:#fc0000;fill-opacity:1;stroke:none" />
    <path
       sodipodi:nodetypes="cssszaasc"
       inkscape:connector-curvature="0"
       id="path2992-7"
       d="m 178.26043,546.55155 c 1.66702,1.72091 0.65329,16.56398 1.14987,25.85942 0.5571,10.42819 -0.18952,12.74549 0.9515,20.90616 0.31685,2.26616 0.30386,10.17471 0.34789,13.55358 0.0626,4.80798 -2.35335,-0.5011 -3.82493,-2.87947 -1.47158,-2.37837 -2.69818,-7.33515 -3.36845,-11.16394 -1.27278,-7.27057 -1.14177,-14.73063 -1.18563,-22.11163 -0.0476,-8.01178 -0.20419,-20.55143 1.00165,-24.01487 1.58244,-4.54509 4.72596,-0.44295 4.9281,-0.14925 z"
       style="opacity:0.52424239;fill:#fc0000;fill-opacity:1;stroke:none" />
  </g>
</svg>
