<?xml version="1.0" encoding="UTF-8" standalone="no"?>
<svg xmlns:dc="http://purl.org/dc/elements/1.1/" xmlns:cc="http://web.resource.org/cc/" xmlns:rdf="http://www.w3.org/1999/02/22-rdf-syntax-ns#" xmlns:svg="http://www.w3.org/2000/svg" xmlns="http://www.w3.org/2000/svg" xmlns:xlink="http://www.w3.org/1999/xlink" xmlns:sodipodi="http://sodipodi.sourceforge.net/DTD/sodipodi-0.dtd" xmlns:inkscape="http://www.inkscape.org/namespaces/inkscape" version="1.0" width="48" height="48" id="svg1800" sodipodi:version="0.32" inkscape:version="0.46dev+devel" sodipodi:docname="Emblem-Admin.svg" inkscape:output_extension="org.inkscape.output.svg.inkscape">
  <metadata id="metadata3608">
    <rdf:RDF>
      <cc:Work rdf:about="">
        <dc:format>image/svg+xml</dc:format>
        <dc:type rdf:resource="http://purl.org/dc/dcmitype/StillImage"/>
      </cc:Work>
    </rdf:RDF>
  </metadata>
  <sodipodi:namedview inkscape:window-height="510" inkscape:window-width="800" inkscape:pageshadow="2" inkscape:pageopacity="0.0" guidetolerance="10.0" gridtolerance="10.0" objecttolerance="10.0" borderopacity="1.0" bordercolor="#666666" pagecolor="#ffffff" id="base" inkscape:zoom="4" inkscape:cx="-7.3621152" inkscape:cy="32.468389" inkscape:window-x="-4" inkscape:window-y="-4" inkscape:current-layer="svg1800" showguides="true" inkscape:guide-bbox="true"/>
  <defs id="defs3">
    <linearGradient id="linearGradient3101">
      <stop style="stop-color:#000000;stop-opacity:1" offset="0" id="stop3103"/>
      <stop style="stop-color:#000000;stop-opacity:0" offset="1" id="stop3105"/>
    </linearGradient>
    <radialGradient cx="17.3125" cy="25.53125" r="9.6875" fx="17.3125" fy="25.53125" id="radialGradient3107" xlink:href="#linearGradient3101" gradientUnits="userSpaceOnUse" gradientTransform="matrix(1,0,0,0.351613,0,16.55413)"/>
    <radialGradient inkscape:collect="always" xlink:href="#linearGradient3101" id="radialGradient3694" gradientUnits="userSpaceOnUse" gradientTransform="matrix(2.182912,0,0,0.7675402,-13.50372,21.78608)" cx="17.3125" cy="25.53125" fx="17.3125" fy="25.53125" r="9.6875"/>
    <linearGradient gradientTransform="matrix(0.97619,0,0,0.406377,0.571429,24.97647)" gradientUnits="userSpaceOnUse" y2="36.615528" x2="24" y1="42.25" x1="24" id="linearGradient2294" xlink:href="#linearGradient2288" inkscape:collect="always"/>
    <radialGradient r="15.644737" fy="36.421127" fx="24.837126" cy="36.421127" cx="24.837126" gradientTransform="matrix(1,0,0,0.536723,3.750475e-14,16.87306)" gradientUnits="userSpaceOnUse" id="radialGradient2490" xlink:href="#linearGradient8662" inkscape:collect="always"/>
    <linearGradient id="linearGradient8662" inkscape:collect="always">
      <stop id="stop8664" offset="0" style="stop-color:#000000;stop-opacity:1;"/>
      <stop id="stop8666" offset="1" style="stop-color:#000000;stop-opacity:0;"/>
    </linearGradient>
    <linearGradient id="linearGradient2834">
      <stop id="stop2836" offset="0" style="stop-color:#ffffff;stop-opacity:1;"/>
      <stop id="stop2838" offset="1.0000000" style="stop-color:#b3b3b3;stop-opacity:0.0000000;"/>
    </linearGradient>
    <linearGradient id="linearGradient3682">
      <stop id="stop3684" offset="0" style="stop-color:#497fc6;stop-opacity:1;"/>
      <stop id="stop3686" offset="1" style="stop-color:#90b3d9;stop-opacity:1;"/>
    </linearGradient>
    <linearGradient id="linearGradient2243">
      <stop style="stop-color:#2a5387;stop-opacity:1" offset="0" id="stop2245"/>
      <stop style="stop-color:#3465a4;stop-opacity:1;" offset="1" id="stop2247"/>
    </linearGradient>
    <linearGradient id="linearGradient2288" inkscape:collect="always">
      <stop id="stop2290" offset="0" style="stop-color:#000000;stop-opacity:1;"/>
      <stop id="stop2292" offset="1" style="stop-color:#000000;stop-opacity:0;"/>
    </linearGradient>
  </defs>
  <path d="M 45.43163,41.38611 C 45.43163,45.49265 35.96382,48.82166 24.28467,48.82166 C 12.60553,48.82166 3.13771,45.49265 3.13771,41.38611 C 3.13771,37.27957 12.60553,33.95057 24.28467,33.95057 C 35.96382,33.95057 45.43163,37.27957 45.43163,41.38611 z" style="opacity:0.40909089;color:#000000;fill:url(#radialGradient3694);fill-opacity:1;fill-rule:nonzero;stroke:none;stroke-width:1.10533953;stroke-linecap:butt;stroke-linejoin:miter;marker:none;marker-start:none;marker-mid:none;marker-end:none;stroke-miterlimit:4;stroke-dasharray:none;stroke-dashoffset:0;stroke-opacity:1;visibility:visible;display:inline;overflow:visible" id="path2258"/>
  <path d="M 45.08492,21.40757 C 45.08492,32.88961 35.77688,42.19764 24.29484,42.19764 C 12.8128,42.19764 3.50476,32.88961 3.50476,21.40757 C 3.50476,9.92554 12.8128,0.61751 24.29484,0.61751 C 35.77688,0.61751 45.08492,9.92554 45.08492,21.40757 L 45.08492,21.40757 z" style="fill:#00aad4;fill-opacity:1;fill-rule:nonzero;stroke:#111535;stroke-width:0.94500303;stroke-linecap:round;stroke-linejoin:round;stroke-miterlimit:4;stroke-dasharray:none;stroke-dashoffset:0;stroke-opacity:1" id="path2260"/>
  <path d="M 44.55207,21.31626 C 44.55207,32.42704 35.545,41.4341 24.43422,41.4341 C 13.32344,41.4341 4.31638,32.42704 4.31638,21.31626 C 4.31638,10.20548 13.32344,1.19842 24.43422,1.19842 C 35.545,1.19842 44.55207,10.20548 44.55207,21.31626 L 44.55207,21.31626 z" style="fill:#497fc6;fill-opacity:1;fill-rule:nonzero;stroke:#3faff2;stroke-width:0.91444718999999997;stroke-linecap:round;stroke-linejoin:round;stroke-miterlimit:4;stroke-dasharray:none;stroke-dashoffset:0;stroke-opacity:1" id="path2262"/>
  <path d="M 43.67316,20.48054 C 43.67316,31.31116 37.62099,16.17434 24.99842,20.86693 C 12.2759,25.59667 4.43178,31.31116 4.43178,20.48054 C 4.43178,9.64992 13.22185,0.85986 24.05247,0.85986 C 34.88309,0.85986 43.67316,9.64992 43.67316,20.48054 z" style="fill:#80e5ff;fill-opacity:0.21568628;fill-rule:nonzero;stroke:none;stroke-width:1;stroke-linecap:round;stroke-linejoin:round;stroke-miterlimit:4;stroke-dashoffset:0;stroke-opacity:1" id="path2268"/>
  <path id="path3305" style="fill:#ffffff;fill-rule:evenodd;stroke:none;stroke-width:1px;stroke-linecap:butt;stroke-linejoin:miter;stroke-opacity:1" d="M 34.587608,25.232313 L 40.052348,27.06715 C 40.796847,23.364654 40.409258,19.457762 38.879226,15.999308 C 35.321718,7.9579954 25.689498,3.4825766 17.462546,7.2389674 C 10.873567,10.247464 7.213349,18.228061 10.416998,24.981632 C 12.915504,30.248702 19.386946,33.168803 24.796733,30.478756 C 28.875644,28.450496 31.132699,23.342164 28.916372,19.143462 C 27.317799,16.11506 23.422275,14.441626 20.298406,16.224934 C 18.178172,17.435302 17.006095,20.273534 18.397952,22.462943 C 19.262675,23.823162 21.205843,24.579625 22.605961,23.53687 C 23.361837,22.973923 23.792493,21.754316 23.022022,21.039585 C 23.489885,21.606182 23.195951,22.438591 22.68005,22.822817 C 21.724436,23.53452 20.398179,23.018217 19.807987,22.089836 C 18.858012,20.595514 19.657982,18.658355 21.105089,17.832252 C 23.237203,16.615104 25.895986,17.75726 26.987049,19.824214 C 28.499744,22.689925 26.959251,26.176477 24.175301,27.560812 C 20.482997,29.396831 16.066092,27.403795 14.360803,23.8089 C 12.17424,19.199433 14.672422,13.752492 19.169551,11.699123 C 24.784634,9.1353024 31.358843,12.189877 33.786924,17.678258 C 34.831207,20.038731 35.095745,22.705275 34.587608,25.232313 z" sodipodi:nodetypes="ccsssssssscssssssssc"/>
  <path sodipodi:type="arc" style="opacity:1;fill:#ffffff;fill-opacity:1;fill-rule:evenodd;stroke:none;stroke-width:0.40000001;stroke-linecap:round;stroke-linejoin:miter;stroke-miterlimit:4;stroke-dasharray:none;stroke-dashoffset:0;stroke-opacity:1" id="path3693" sodipodi:cx="35.974056" sodipodi:cy="30.499107" sodipodi:rx="2.7400389" sodipodi:ry="2.8284271" d="M 38.714095,30.499107 A 2.7400389,2.8284271 0 1 1 33.234017,30.499107 A 2.7400389,2.8284271 0 1 1 38.714095,30.499107 z"/>
</svg>