<?xml version="1.0" encoding="UTF-8" standalone="no"?>
<!-- Created with Inkscape (http://www.inkscape.org/) -->

<svg
   xmlns:dc="http://purl.org/dc/elements/1.1/"
   xmlns:cc="http://creativecommons.org/ns#"
   xmlns:rdf="http://www.w3.org/1999/02/22-rdf-syntax-ns#"
   xmlns:svg="http://www.w3.org/2000/svg"
   xmlns="http://www.w3.org/2000/svg"
   xmlns:sodipodi="http://sodipodi.sourceforge.net/DTD/sodipodi-0.dtd"
   xmlns:inkscape="http://www.inkscape.org/namespaces/inkscape"
   width="200"
   height="369.0256"
   id="svg2"
   version="1.1"
   inkscape:version="0.48.3.1 r9886"
   sodipodi:docname="muscular_system_back.svg">
  <defs
     id="defs4" />
  <sodipodi:namedview
     id="base"
     pagecolor="#ffffff"
     bordercolor="#666666"
     borderopacity="1.0"
     inkscape:pageopacity="0.0"
     inkscape:pageshadow="2"
     inkscape:zoom="0.7"
     inkscape:cx="420.23066"
     inkscape:cy="94.1613"
     inkscape:document-units="px"
     inkscape:current-layer="layer1"
     showgrid="false"
     fit-margin-top="0"
     fit-margin-left="0"
     fit-margin-right="0"
     fit-margin-bottom="0"
     inkscape:window-width="844"
     inkscape:window-height="577"
     inkscape:window-x="318"
     inkscape:window-y="157"
     inkscape:window-maximized="0" />
  <metadata
     id="metadata7">
    <rdf:RDF>
      <cc:Work
         rdf:about="">
        <dc:format>image/svg+xml</dc:format>
        <dc:type
           rdf:resource="http://purl.org/dc/dcmitype/StillImage" />
        <dc:title></dc:title>
      </cc:Work>
    </rdf:RDF>
  </metadata>
  <g
     inkscape:label="Ebene 1"
     inkscape:groupmode="layer"
     id="layer1"
     transform="translate(-54.28571,-335.71932)">
    <path
       style="opacity:0.52424239;fill:#f57900;fill-opacity:1;stroke:none;display:inline"
       d="m 191.55063,438.91472 c -0.3625,2.35132 -0.62211,10.687 0.0856,13.02164 3.8465,9.09699 3.62452,11.21449 7.14787,12.86388 6.10219,2.85662 4.81236,1.08698 6.92525,0.15576 2.05497,-0.9057 4.7139,-2.75842 4.43256,-5.07359 -0.87122,-7.16941 1.00012,-14.25906 -1.07998,-20.8601 -16.47188,-16.75749 -16.00743,-10.16063 -17.51127,-0.10759 z"
       id="path2992-9-5"
       inkscape:connector-curvature="0"
       sodipodi:nodetypes="ccsascc" />
    <path
       style="opacity:0.52424239;fill:#f57900;fill-opacity:1;stroke:none;display:inline"
       d="m 116.92894,439.13084 c 0.3625,2.35132 0.62211,10.687 -0.0856,13.02164 -3.8465,9.09699 -3.62452,11.21449 -7.14787,12.86388 -6.10219,2.85662 -4.81236,1.08698 -6.92525,0.15576 -2.05497,-0.9057 -4.713898,-2.75842 -4.432558,-5.07359 0.87122,-7.16941 -1.00012,-14.25906 1.07998,-20.8601 16.471878,-16.75749 16.007428,-10.16063 17.511268,-0.10759 z"
       id="path2992-9-5-1"
       inkscape:connector-curvature="0"
       sodipodi:nodetypes="ccsascc" />
  </g>
</svg>
