<?xml version="1.0" encoding="UTF-8" standalone="no"?>
<!-- Created with Inkscape (http://www.inkscape.org/) -->

<svg
   xmlns:dc="http://purl.org/dc/elements/1.1/"
   xmlns:cc="http://creativecommons.org/ns#"
   xmlns:rdf="http://www.w3.org/1999/02/22-rdf-syntax-ns#"
   xmlns:svg="http://www.w3.org/2000/svg"
   xmlns="http://www.w3.org/2000/svg"
   xmlns:sodipodi="http://sodipodi.sourceforge.net/DTD/sodipodi-0.dtd"
   xmlns:inkscape="http://www.inkscape.org/namespaces/inkscape"
   width="200"
   height="369.03"
   id="svg2"
   version="1.1"
   inkscape:version="0.48.3.1 r9886"
   sodipodi:docname="muscle-9.svg">
  <defs
     id="defs4" />
  <sodipodi:namedview
     id="base"
     pagecolor="#ffffff"
     bordercolor="#666666"
     borderopacity="1.0"
     inkscape:pageopacity="0.0"
     inkscape:pageshadow="2"
     inkscape:zoom="1.4"
     inkscape:cx="132.1017"
     inkscape:cy="240.25278"
     inkscape:document-units="px"
     inkscape:current-layer="layer1"
     showgrid="false"
     fit-margin-top="0"
     fit-margin-left="0"
     fit-margin-right="0"
     fit-margin-bottom="0"
     inkscape:window-width="844"
     inkscape:window-height="547"
     inkscape:window-x="178"
     inkscape:window-y="24"
     inkscape:window-maximized="0" />
  <metadata
     id="metadata7">
    <rdf:RDF>
      <cc:Work
         rdf:about="">
        <dc:format>image/svg+xml</dc:format>
        <dc:type
           rdf:resource="http://purl.org/dc/dcmitype/StillImage" />
        <dc:title />
      </cc:Work>
    </rdf:RDF>
  </metadata>
  <g
     inkscape:label="Ebene 1"
     inkscape:groupmode="layer"
     id="layer1"
     transform="translate(-54.28571,-335.71492)">
    <path
       style="opacity:0.52424238999999995;fill:#f57900;fill-opacity:1;stroke:none;display:inline"
       d="m 133.87398,415.10147 c 3.8465,9.09699 4.87096,25.50048 14.82644,36.25673 -0.0143,-4.0028 1.59476,-25.62206 1.53638,-26.52497 -0.87122,-7.16941 0.64298,-37.65192 -1.43712,-44.25296 -2.73371,-2.7811 -1.12578,-1.74427 -2.21898,-0.14255 -6.90139,10.11167 -15.08205,15.48176 -25.82801,19.49925 6.10446,3.54937 10.82182,8.1217 13.12129,15.1645 z"
       id="path2992-9-5"
       inkscape:connector-curvature="0"
       sodipodi:nodetypes="ccccscc" />
    <path
       style="opacity:0.52424238999999995;fill:#f57900;fill-opacity:1;stroke:none;display:inline"
       d="m 176.08582,415.27863 c -3.8465,9.09699 -4.87096,25.50048 -14.82644,36.25673 0.0143,-4.0028 -1.59476,-25.62206 -1.53638,-26.52497 0.87122,-7.16941 -0.64298,-37.65192 1.43712,-44.25296 2.73371,-2.7811 1.12578,-1.74427 2.21898,-0.14255 6.90139,10.11167 15.08205,15.48176 25.82801,19.49925 -6.10446,3.54937 -10.82182,8.1217 -13.12129,15.1645 z"
       id="path2992-9-5-7"
       inkscape:connector-curvature="0"
       sodipodi:nodetypes="ccccscc" />
  </g>
</svg>
