<?xml version="1.0" encoding="UTF-8" standalone="no"?>
<!-- Created with Inkscape (http://www.inkscape.org/) -->

<svg
   xmlns:dc="http://purl.org/dc/elements/1.1/"
   xmlns:cc="http://creativecommons.org/ns#"
   xmlns:rdf="http://www.w3.org/1999/02/22-rdf-syntax-ns#"
   xmlns:svg="http://www.w3.org/2000/svg"
   xmlns="http://www.w3.org/2000/svg"
   xmlns:sodipodi="http://sodipodi.sourceforge.net/DTD/sodipodi-0.dtd"
   xmlns:inkscape="http://www.inkscape.org/namespaces/inkscape"
   width="200"
   height="369.03"
   id="svg2"
   version="1.1"
   inkscape:version="0.48.3.1 r9886"
   sodipodi:docname="muscular_system_back.svg">
  <defs
     id="defs4" />
  <sodipodi:namedview
     id="base"
     pagecolor="#ffffff"
     bordercolor="#666666"
     borderopacity="1.0"
     inkscape:pageopacity="0.0"
     inkscape:pageshadow="2"
     inkscape:zoom="2.8"
     inkscape:cx="152.38763"
     inkscape:cy="162.95615"
     inkscape:document-units="px"
     inkscape:current-layer="layer1"
     showgrid="false"
     fit-margin-top="0"
     fit-margin-left="0"
     fit-margin-right="0"
     fit-margin-bottom="0"
     inkscape:window-width="844"
     inkscape:window-height="577"
     inkscape:window-x="643"
     inkscape:window-y="68"
     inkscape:window-maximized="0" />
  <metadata
     id="metadata7">
    <rdf:RDF>
      <cc:Work
         rdf:about="">
        <dc:format>image/svg+xml</dc:format>
        <dc:type
           rdf:resource="http://purl.org/dc/dcmitype/StillImage" />
        <dc:title></dc:title>
      </cc:Work>
    </rdf:RDF>
  </metadata>
  <g
     inkscape:label="Ebene 1"
     inkscape:groupmode="layer"
     id="layer1"
     transform="translate(-54.28571,-335.71492)">
    <path
       style="opacity:0.52424239;fill:#f57900;fill-opacity:1;stroke:none;display:inline"
       d="m 164.02666,497.12852 c -1.55631,1.52025 -1.56504,4.09871 -2.31396,6.16047 -1.07519,2.95998 -2.07652,5.94628 -3.12871,8.91451 -0.94527,2.6666 -2.81581,5.50344 -2.86083,7.99088 -0.12727,7.03248 5.37882,9.33869 8.71656,12.20652 3.33774,2.86783 6.9498,5.51311 9.32708,7.83922 2.37728,2.32611 6.07419,4.2694 9.30355,7.71468 2.2591,2.41015 4.83843,5.12955 5.17102,9.6188 0.46426,6.26654 -1.41009,15.04789 -0.92068,14.42208 3.2937,-4.21159 5.83554,-31.16875 4.06336,-40.6264 -0.62961,-3.36009 -0.57506,-9.6715 -2.31541,-14.10789 -2.41369,-6.1528 -6.45379,-11.68558 -10.94915,-16.53062 -2.83801,-3.05877 -7.71744,-6.10426 -9.89005,-7.67335 -2.55028,-0.64249 -2.72663,2.0481 -4.20274,4.07106 z"
       id="path2992-9-5"
       inkscape:connector-curvature="0"
       sodipodi:nodetypes="caaszzssssaaccc" />
    <path
       style="opacity:0.52424239;fill:#f57900;fill-opacity:1;stroke:none;display:inline"
       d="m 144.10239,497.59374 c 1.55631,1.52025 1.56504,4.09871 2.31396,6.16047 1.07519,2.95998 2.07652,5.94628 3.12871,8.91451 0.94527,2.6666 2.81581,5.50344 2.86083,7.99088 0.12727,7.03248 -5.37882,9.33869 -8.71656,12.20652 -3.33774,2.86783 -6.9498,5.51311 -9.32708,7.83922 -2.37728,2.32611 -6.07419,4.2694 -9.30355,7.71468 -2.2591,2.41015 -4.83843,5.12955 -5.17102,9.6188 -0.46426,6.26654 1.41009,15.04789 0.92068,14.42208 -3.2937,-4.21159 -5.83554,-31.16875 -4.06336,-40.6264 0.62961,-3.36009 0.57506,-9.6715 2.31541,-14.10789 2.41369,-6.1528 6.45379,-11.68558 10.94915,-16.53062 2.83801,-3.05877 7.71744,-6.10426 9.89005,-7.67335 2.55028,-0.64249 2.72663,2.0481 4.20274,4.07106 z"
       id="path2992-9-5-8"
       inkscape:connector-curvature="0"
       sodipodi:nodetypes="caaszzssssaaccc" />
  </g>
</svg>
