<?xml version="1.0" encoding="UTF-8" standalone="no"?>
<!-- Created with Inkscape (http://www.inkscape.org/) -->

<svg
   xmlns:dc="http://purl.org/dc/elements/1.1/"
   xmlns:cc="http://creativecommons.org/ns#"
   xmlns:rdf="http://www.w3.org/1999/02/22-rdf-syntax-ns#"
   xmlns:svg="http://www.w3.org/2000/svg"
   xmlns="http://www.w3.org/2000/svg"
   xmlns:sodipodi="http://sodipodi.sourceforge.net/DTD/sodipodi-0.dtd"
   xmlns:inkscape="http://www.inkscape.org/namespaces/inkscape"
   width="200"
   height="369.03"
   id="svg2"
   version="1.1"
   inkscape:version="0.48.3.1 r9886"
   sodipodi:docname="muscular_system_back.svg">
  <defs
     id="defs4" />
  <sodipodi:namedview
     id="base"
     pagecolor="#ffffff"
     bordercolor="#666666"
     borderopacity="1.0"
     inkscape:pageopacity="0.0"
     inkscape:pageshadow="2"
     inkscape:zoom="1.4"
     inkscape:cx="187.27864"
     inkscape:cy="81.858086"
     inkscape:document-units="px"
     inkscape:current-layer="layer1"
     showgrid="false"
     fit-margin-top="0"
     fit-margin-left="0"
     fit-margin-right="0"
     fit-margin-bottom="0"
     inkscape:window-width="844"
     inkscape:window-height="577"
     inkscape:window-x="484"
     inkscape:window-y="65"
     inkscape:window-maximized="0" />
  <metadata
     id="metadata7">
    <rdf:RDF>
      <cc:Work
         rdf:about="">
        <dc:format>image/svg+xml</dc:format>
        <dc:type
           rdf:resource="http://purl.org/dc/dcmitype/StillImage" />
        <dc:title></dc:title>
      </cc:Work>
    </rdf:RDF>
  </metadata>
  <g
     inkscape:label="Ebene 1"
     inkscape:groupmode="layer"
     id="layer1"
     transform="translate(-54.28571,-335.71492)">
    <path
       style="opacity:0.52424239;fill:#fc0000;fill-opacity:1;stroke:none;display:inline"
       d="m 157.84649,628.07391 c 0.18417,4.50671 0.628,11.65178 1.91202,17.31467 0.83063,3.6633 2.37474,5.09284 3.71512,10.63888 2.14383,8.8704 -0.81431,29.19307 0.0245,29.59121 1.58892,0.91978 1.82319,-0.28511 2.39951,-0.91864 4.22119,-4.64016 2.74914,-12.29168 5.04025,-18.13123 2.62168,-6.6821 4.96173,-6.44129 9.87964,-19.13389 0.41377,-4.25735 2.33285,-10.64845 2.50529,-16.06563 0.14015,-4.40301 -0.21634,-10.77342 -1.20169,-13.16097 -0.0822,-3.20813 -7.17121,-16.98878 -9.34382,-18.55787 -2.55028,-0.64249 -5.10933,-3.66092 -6.58544,-1.63796 -3.4339,1.48689 -3.36742,1.68575 -4.67162,4.03725 -2.30927,4.16367 -0.88234,14.44818 -3.67374,26.02418 z"
       id="path2992-9-5"
       inkscape:connector-curvature="0"
       sodipodi:nodetypes="cascaacacccsc" />
    <path
       style="opacity:0.52424239;fill:#fc0000;fill-opacity:1;stroke:none;display:inline"
       d="m 151.38626,628.55089 c -0.18417,4.50671 -0.628,11.65178 -1.91202,17.31467 -0.83063,3.6633 -2.37474,5.09284 -3.71512,10.63888 -2.14383,8.8704 0.81431,29.19307 -0.0245,29.59121 -1.58892,0.91978 -1.82319,-0.28511 -2.39951,-0.91864 -4.22119,-4.64016 -2.74914,-12.29168 -5.04025,-18.13123 -2.62168,-6.6821 -4.96173,-6.44129 -9.87964,-19.13389 -0.41377,-4.25735 -2.33285,-10.64845 -2.50529,-16.06563 -0.14015,-4.40301 0.21634,-10.77342 1.20169,-13.16097 0.0822,-3.20813 7.17121,-16.98878 9.34382,-18.55787 2.55028,-0.64249 5.10933,-3.66092 6.58544,-1.63796 3.4339,1.48689 3.36742,1.68575 4.67162,4.03725 2.30927,4.16367 0.88234,14.44818 3.67374,26.02418 z"
       id="path2992-9-5-1"
       inkscape:connector-curvature="0"
       sodipodi:nodetypes="cascaacacccsc" />
  </g>
</svg>
