<?xml version="1.0" encoding="UTF-8" standalone="no"?>
<!DOCTYPE svg PUBLIC "-//W3C//DTD SVG 1.1//EN"
 "http://www.w3.org/Graphics/SVG/1.1/DTD/svg11.dtd">
<!-- Generated by graphviz version 2.43.0 (0)
 -->
<!-- Title: model_graph Pages: 1 -->
<svg width="1308pt" height="779pt"
 viewBox="0.00 0.00 1308.00 779.00" xmlns="http://www.w3.org/2000/svg" xmlns:xlink="http://www.w3.org/1999/xlink">
<g id="graph0" class="graph" transform="scale(1 1) rotate(0) translate(4 775)">
<title>model_graph</title>
<polygon fill="white" stroke="transparent" points="-4,4 -4,-775 1304,-775 1304,4 -4,4"/>
<g id="clust1" class="cluster">
<title>cluster_wger_exercises</title>
<path fill="none" stroke="#698b22" d="M12,-73C12,-73 1186,-73 1186,-73 1192,-73 1198,-79 1198,-85 1198,-85 1198,-759 1198,-759 1198,-765 1192,-771 1186,-771 1186,-771 12,-771 12,-771 6,-771 0,-765 0,-759 0,-759 0,-85 0,-85 0,-79 6,-73 12,-73"/>
<text text-anchor="start" x="502.5" y="-755.5" font-family="Roboto" font-size="8.00"> &#160;&#160;&#160;&#160;&#160;&#160;&#160;&#160;&#160;</text>
<text text-anchor="start" x="525.5" y="-755.5" font-family="Roboto" font-size="10.00"> &#160;&#160;&#160;&#160;&#160;&#160;&#160;&#160;&#160;</text>
<text text-anchor="start" x="556.5" y="-755.5" font-family="Roboto" font-weight="bold" font-size="10.00">wger.exercises</text>
<text text-anchor="start" x="641.5" y="-755.5" font-family="Roboto" font-size="10.00"> &#160;&#160;&#160;&#160;&#160;&#160;&#160;&#160;&#160;</text>
<text text-anchor="start" x="672.5" y="-755.5" font-family="Roboto" font-size="8.00"> &#160;&#160;&#160;&#160;&#160;&#160;&#160;&#160;&#160;</text>
</g>
<!-- wger_utils_models_AbstractSubmissionModel -->
<g id="node1" class="node">
<title>wger_utils_models_AbstractSubmissionModel</title>
<polygon fill="white" stroke="transparent" points="16.5,-98 16.5,-134 235.5,-134 235.5,-98 16.5,-98"/>
<polygon fill="#1b563f" stroke="transparent" points="18,-112 18,-133 235,-133 235,-112 18,-112"/>
<text text-anchor="start" x="23" y="-121" font-family="Roboto" font-size="8.00"> &#160;&#160;&#160;&#160;&#160;</text>
<text text-anchor="start" x="37" y="-121" font-family="Roboto" font-weight="bold" font-size="10.00" fill="white"> &#160;&#160;&#160;&#160;&#160;AbstractSubmissionModel &#160;&#160;&#160;&#160;&#160;</text>
<text text-anchor="start" x="20" y="-104.6" font-family="Roboto" font-size="8.00"> &#160;&#160;&#160;&#160;&#160;</text>
<text text-anchor="start" x="34" y="-104.6" font-family="Roboto" font-size="8.00">status</text>
<text text-anchor="start" x="60" y="-104.6" font-family="Roboto" font-size="8.00"> &#160;&#160;&#160;&#160;&#160;</text>
<text text-anchor="start" x="122" y="-104.6" font-family="Roboto" font-size="8.00"> &#160;&#160;&#160;&#160;&#160;</text>
<text text-anchor="start" x="136" y="-104.6" font-family="Roboto" font-size="8.00">CharField</text>
<text text-anchor="start" x="174" y="-104.6" font-family="Roboto" font-size="8.00"> &#160;&#160;&#160;&#160;&#160;</text>
<polygon fill="none" stroke="black" points="16.5,-98 16.5,-134 235.5,-134 235.5,-98 16.5,-98"/>
</g>
<!-- wger_utils_models_AbstractLicenseModel -->
<g id="node2" class="node">
<title>wger_utils_models_AbstractLicenseModel</title>
<polygon fill="white" stroke="transparent" points="984,-91.5 984,-140.5 1182,-140.5 1182,-91.5 984,-91.5"/>
<polygon fill="#1b563f" stroke="transparent" points="985,-118 985,-139 1181,-139 1181,-118 985,-118"/>
<text text-anchor="start" x="991" y="-127" font-family="Roboto" font-size="8.00"> &#160;&#160;&#160;&#160;&#160;</text>
<text text-anchor="start" x="1005" y="-127" font-family="Roboto" font-weight="bold" font-size="10.00" fill="white"> &#160;&#160;&#160;&#160;&#160;AbstractLicenseModel &#160;&#160;&#160;&#160;&#160;</text>
<text text-anchor="start" x="987" y="-110.6" font-family="Roboto" font-size="8.00"> &#160;&#160;&#160;&#160;&#160;</text>
<text text-anchor="start" x="1001" y="-110.6" font-family="Roboto" font-weight="bold" font-size="8.00">license</text>
<text text-anchor="start" x="1033" y="-110.6" font-family="Roboto" font-size="8.00"> &#160;&#160;&#160;&#160;&#160;</text>
<text text-anchor="start" x="1080" y="-110.6" font-family="Roboto" font-size="8.00"> &#160;&#160;&#160;&#160;&#160;</text>
<text text-anchor="start" x="1094" y="-110.6" font-family="Roboto" font-weight="bold" font-size="8.00">ForeignKey (id)</text>
<text text-anchor="start" x="1165" y="-110.6" font-family="Roboto" font-size="8.00"> &#160;&#160;&#160;&#160;&#160;</text>
<text text-anchor="start" x="987" y="-97.6" font-family="Roboto" font-size="8.00"> &#160;&#160;&#160;&#160;&#160;</text>
<text text-anchor="start" x="1001" y="-97.6" font-family="Roboto" font-size="8.00" fill="#7b7b7b">license_author</text>
<text text-anchor="start" x="1062" y="-97.6" font-family="Roboto" font-size="8.00"> &#160;&#160;&#160;&#160;&#160;</text>
<text text-anchor="start" x="1080" y="-97.6" font-family="Roboto" font-size="8.00"> &#160;&#160;&#160;&#160;&#160;</text>
<text text-anchor="start" x="1094" y="-97.6" font-family="Roboto" font-size="8.00" fill="#7b7b7b">CharField</text>
<text text-anchor="start" x="1132" y="-97.6" font-family="Roboto" font-size="8.00"> &#160;&#160;&#160;&#160;&#160;</text>
<polygon fill="none" stroke="black" points="984,-91.5 984,-140.5 1182,-140.5 1182,-91.5 984,-91.5"/>
</g>
<!-- wger_core_models_License -->
<g id="node11" class="node">
<title>wger_core_models_License</title>
<polygon fill="white" stroke="transparent" points="1051,-7.5 1051,-28.5 1115,-28.5 1115,-7.5 1051,-7.5"/>
<polygon fill="#1b563f" stroke="transparent" points="1051,-7 1051,-28 1115,-28 1115,-7 1051,-7"/>
<text text-anchor="start" x="1055" y="-15.4" font-family="Roboto" font-size="8.00"> &#160;</text>
<text text-anchor="start" x="1060" y="-15.4" font-family="Roboto" font-size="12.00" fill="white">License</text>
<text text-anchor="start" x="1106" y="-15.4" font-family="Roboto" font-size="8.00"> &#160;</text>
</g>
<!-- wger_utils_models_AbstractLicenseModel&#45;&gt;wger_core_models_License -->
<g id="edge15" class="edge">
<title>wger_utils_models_AbstractLicenseModel&#45;&gt;wger_core_models_License</title>
<path fill="none" stroke="black" d="M1083,-79.09C1083,-64.42 1083,-48.15 1083,-36.24"/>
<ellipse fill="black" stroke="black" cx="1083" cy="-83.49" rx="4" ry="4"/>
<text text-anchor="middle" x="1147.5" y="-56.6" font-family="Roboto" font-size="8.00"> license (abstractlicensemodel)</text>
</g>
<!-- wger_exercises_models_Muscle -->
<g id="node3" class="node">
<title>wger_exercises_models_Muscle</title>
<polygon fill="white" stroke="transparent" points="270,-85 270,-147 420,-147 420,-85 270,-85"/>
<polygon fill="#1b563f" stroke="transparent" points="271,-125 271,-146 419,-146 419,-125 271,-125"/>
<text text-anchor="start" x="295.5" y="-134" font-family="Roboto" font-size="8.00"> &#160;&#160;&#160;&#160;&#160;</text>
<text text-anchor="start" x="309.5" y="-134" font-family="Roboto" font-weight="bold" font-size="10.00" fill="white"> &#160;&#160;&#160;&#160;&#160;Muscle &#160;&#160;&#160;&#160;&#160;</text>
<text text-anchor="start" x="273" y="-117.6" font-family="Roboto" font-size="8.00"> &#160;&#160;&#160;&#160;&#160;</text>
<text text-anchor="start" x="287" y="-117.6" font-family="Roboto" font-weight="bold" font-size="8.00">id</text>
<text text-anchor="start" x="297" y="-117.6" font-family="Roboto" font-size="8.00"> &#160;&#160;&#160;&#160;&#160;</text>
<text text-anchor="start" x="336" y="-117.6" font-family="Roboto" font-size="8.00"> &#160;&#160;&#160;&#160;&#160;</text>
<text text-anchor="start" x="350" y="-117.6" font-family="Roboto" font-weight="bold" font-size="8.00">AutoField</text>
<text text-anchor="start" x="394" y="-117.6" font-family="Roboto" font-size="8.00"> &#160;&#160;&#160;&#160;&#160;</text>
<text text-anchor="start" x="273" y="-104.6" font-family="Roboto" font-size="8.00"> &#160;&#160;&#160;&#160;&#160;</text>
<text text-anchor="start" x="287" y="-104.6" font-family="Roboto" font-size="8.00">is_front</text>
<text text-anchor="start" x="318" y="-104.6" font-family="Roboto" font-size="8.00"> &#160;&#160;&#160;&#160;&#160;</text>
<text text-anchor="start" x="336" y="-104.6" font-family="Roboto" font-size="8.00"> &#160;&#160;&#160;&#160;&#160;</text>
<text text-anchor="start" x="350" y="-104.6" font-family="Roboto" font-size="8.00">BooleanField</text>
<text text-anchor="start" x="403" y="-104.6" font-family="Roboto" font-size="8.00"> &#160;&#160;&#160;&#160;&#160;</text>
<text text-anchor="start" x="273" y="-91.6" font-family="Roboto" font-size="8.00"> &#160;&#160;&#160;&#160;&#160;</text>
<text text-anchor="start" x="287" y="-91.6" font-family="Roboto" font-size="8.00">name</text>
<text text-anchor="start" x="311" y="-91.6" font-family="Roboto" font-size="8.00"> &#160;&#160;&#160;&#160;&#160;</text>
<text text-anchor="start" x="336" y="-91.6" font-family="Roboto" font-size="8.00"> &#160;&#160;&#160;&#160;&#160;</text>
<text text-anchor="start" x="350" y="-91.6" font-family="Roboto" font-size="8.00">CharField</text>
<text text-anchor="start" x="388" y="-91.6" font-family="Roboto" font-size="8.00"> &#160;&#160;&#160;&#160;&#160;</text>
<polygon fill="none" stroke="black" points="270,-85 270,-147 420,-147 420,-85 270,-85"/>
</g>
<!-- wger_exercises_models_Equipment -->
<g id="node4" class="node">
<title>wger_exercises_models_Equipment</title>
<polygon fill="white" stroke="transparent" points="612,-91.5 612,-140.5 746,-140.5 746,-91.5 612,-91.5"/>
<polygon fill="#1b563f" stroke="transparent" points="613,-118 613,-139 745,-139 745,-118 613,-118"/>
<text text-anchor="start" x="619" y="-127" font-family="Roboto" font-size="8.00"> &#160;&#160;&#160;&#160;&#160;</text>
<text text-anchor="start" x="633" y="-127" font-family="Roboto" font-weight="bold" font-size="10.00" fill="white"> &#160;&#160;&#160;&#160;&#160;Equipment &#160;&#160;&#160;&#160;&#160;</text>
<text text-anchor="start" x="615" y="-110.6" font-family="Roboto" font-size="8.00"> &#160;&#160;&#160;&#160;&#160;</text>
<text text-anchor="start" x="629" y="-110.6" font-family="Roboto" font-weight="bold" font-size="8.00">id</text>
<text text-anchor="start" x="639" y="-110.6" font-family="Roboto" font-size="8.00"> &#160;&#160;&#160;&#160;&#160;</text>
<text text-anchor="start" x="671" y="-110.6" font-family="Roboto" font-size="8.00"> &#160;&#160;&#160;&#160;&#160;</text>
<text text-anchor="start" x="685" y="-110.6" font-family="Roboto" font-weight="bold" font-size="8.00">AutoField</text>
<text text-anchor="start" x="729" y="-110.6" font-family="Roboto" font-size="8.00"> &#160;&#160;&#160;&#160;&#160;</text>
<text text-anchor="start" x="615" y="-97.6" font-family="Roboto" font-size="8.00"> &#160;&#160;&#160;&#160;&#160;</text>
<text text-anchor="start" x="629" y="-97.6" font-family="Roboto" font-size="8.00">name</text>
<text text-anchor="start" x="653" y="-97.6" font-family="Roboto" font-size="8.00"> &#160;&#160;&#160;&#160;&#160;</text>
<text text-anchor="start" x="671" y="-97.6" font-family="Roboto" font-size="8.00"> &#160;&#160;&#160;&#160;&#160;</text>
<text text-anchor="start" x="685" y="-97.6" font-family="Roboto" font-size="8.00">CharField</text>
<text text-anchor="start" x="723" y="-97.6" font-family="Roboto" font-size="8.00"> &#160;&#160;&#160;&#160;&#160;</text>
<polygon fill="none" stroke="black" points="612,-91.5 612,-140.5 746,-140.5 746,-91.5 612,-91.5"/>
</g>
<!-- wger_exercises_models_ExerciseCategory -->
<g id="node5" class="node">
<title>wger_exercises_models_ExerciseCategory</title>
<polygon fill="white" stroke="transparent" points="779.5,-91.5 779.5,-140.5 950.5,-140.5 950.5,-91.5 779.5,-91.5"/>
<polygon fill="#1b563f" stroke="transparent" points="781,-118 781,-139 950,-139 950,-118 781,-118"/>
<text text-anchor="start" x="786" y="-127" font-family="Roboto" font-size="8.00"> &#160;&#160;&#160;&#160;&#160;</text>
<text text-anchor="start" x="800" y="-127" font-family="Roboto" font-weight="bold" font-size="10.00" fill="white"> &#160;&#160;&#160;&#160;&#160;ExerciseCategory &#160;&#160;&#160;&#160;&#160;</text>
<text text-anchor="start" x="783" y="-110.6" font-family="Roboto" font-size="8.00"> &#160;&#160;&#160;&#160;&#160;</text>
<text text-anchor="start" x="797" y="-110.6" font-family="Roboto" font-weight="bold" font-size="8.00">id</text>
<text text-anchor="start" x="807" y="-110.6" font-family="Roboto" font-size="8.00"> &#160;&#160;&#160;&#160;&#160;</text>
<text text-anchor="start" x="857" y="-110.6" font-family="Roboto" font-size="8.00"> &#160;&#160;&#160;&#160;&#160;</text>
<text text-anchor="start" x="871" y="-110.6" font-family="Roboto" font-weight="bold" font-size="8.00">AutoField</text>
<text text-anchor="start" x="915" y="-110.6" font-family="Roboto" font-size="8.00"> &#160;&#160;&#160;&#160;&#160;</text>
<text text-anchor="start" x="783" y="-97.6" font-family="Roboto" font-size="8.00"> &#160;&#160;&#160;&#160;&#160;</text>
<text text-anchor="start" x="797" y="-97.6" font-family="Roboto" font-size="8.00">name</text>
<text text-anchor="start" x="821" y="-97.6" font-family="Roboto" font-size="8.00"> &#160;&#160;&#160;&#160;&#160;</text>
<text text-anchor="start" x="857" y="-97.6" font-family="Roboto" font-size="8.00"> &#160;&#160;&#160;&#160;&#160;</text>
<text text-anchor="start" x="871" y="-97.6" font-family="Roboto" font-size="8.00">CharField</text>
<text text-anchor="start" x="909" y="-97.6" font-family="Roboto" font-size="8.00"> &#160;&#160;&#160;&#160;&#160;</text>
<polygon fill="none" stroke="black" points="779.5,-91.5 779.5,-140.5 950.5,-140.5 950.5,-91.5 779.5,-91.5"/>
</g>
<!-- wger_exercises_models_Variation -->
<g id="node6" class="node">
<title>wger_exercises_models_Variation</title>
<polygon fill="white" stroke="transparent" points="454.5,-98 454.5,-134 577.5,-134 577.5,-98 454.5,-98"/>
<polygon fill="#1b563f" stroke="transparent" points="456,-112 456,-133 577,-133 577,-112 456,-112"/>
<text text-anchor="start" x="461" y="-121" font-family="Roboto" font-size="8.00"> &#160;&#160;&#160;&#160;&#160;</text>
<text text-anchor="start" x="475" y="-121" font-family="Roboto" font-weight="bold" font-size="10.00" fill="white"> &#160;&#160;&#160;&#160;&#160;Variation &#160;&#160;&#160;&#160;&#160;</text>
<text text-anchor="start" x="458" y="-104.6" font-family="Roboto" font-size="8.00"> &#160;&#160;&#160;&#160;&#160;</text>
<text text-anchor="start" x="472" y="-104.6" font-family="Roboto" font-weight="bold" font-size="8.00">id</text>
<text text-anchor="start" x="482" y="-104.6" font-family="Roboto" font-size="8.00"> &#160;&#160;&#160;&#160;&#160;</text>
<text text-anchor="start" x="501" y="-104.6" font-family="Roboto" font-size="8.00"> &#160;&#160;&#160;&#160;&#160;</text>
<text text-anchor="start" x="515" y="-104.6" font-family="Roboto" font-weight="bold" font-size="8.00">AutoField</text>
<text text-anchor="start" x="559" y="-104.6" font-family="Roboto" font-size="8.00"> &#160;&#160;&#160;&#160;&#160;</text>
<polygon fill="none" stroke="black" points="454.5,-98 454.5,-134 577.5,-134 577.5,-98 454.5,-98"/>
</g>
<!-- wger_exercises_models_ExerciseBase -->
<g id="node7" class="node">
<title>wger_exercises_models_ExerciseBase</title>
<polygon fill="white" stroke="transparent" points="427.5,-209 427.5,-319 756.5,-319 756.5,-209 427.5,-209"/>
<polygon fill="#1b563f" stroke="transparent" points="429,-288 429,-318 756,-318 756,-288 429,-288"/>
<text text-anchor="start" x="536.5" y="-306" font-family="Roboto" font-size="8.00"> &#160;&#160;&#160;&#160;&#160;</text>
<text text-anchor="start" x="550.5" y="-306" font-family="Roboto" font-weight="bold" font-size="10.00" fill="white"> &#160;&#160;&#160;&#160;&#160;ExerciseBase</text>
<text text-anchor="start" x="434" y="-296" font-family="Roboto" font-weight="bold" font-size="10.00" fill="white">&lt;</text>
<text text-anchor="start" x="443" y="-296" font-family="Roboto" font-weight="bold" font-style="italic" font-size="10.00" fill="white">AbstractSubmissionModel,AbstractLicenseModel</text>
<text text-anchor="start" x="720" y="-296" font-family="Roboto" font-weight="bold" font-size="10.00" fill="white">&gt; &#160;&#160;&#160;&#160;&#160;</text>
<text text-anchor="start" x="431" y="-280.6" font-family="Roboto" font-size="8.00"> &#160;&#160;&#160;&#160;&#160;</text>
<text text-anchor="start" x="445" y="-280.6" font-family="Roboto" font-weight="bold" font-size="8.00">id</text>
<text text-anchor="start" x="455" y="-280.6" font-family="Roboto" font-size="8.00"> &#160;&#160;&#160;&#160;&#160;</text>
<text text-anchor="start" x="589" y="-280.6" font-family="Roboto" font-size="8.00"> &#160;&#160;&#160;&#160;&#160;</text>
<text text-anchor="start" x="603" y="-280.6" font-family="Roboto" font-weight="bold" font-size="8.00">AutoField</text>
<text text-anchor="start" x="647" y="-280.6" font-family="Roboto" font-size="8.00"> &#160;&#160;&#160;&#160;&#160;</text>
<text text-anchor="start" x="431" y="-267.6" font-family="Roboto" font-size="8.00"> &#160;&#160;&#160;&#160;&#160;</text>
<text text-anchor="start" x="445" y="-267.6" font-family="Roboto" font-weight="bold" font-size="8.00">category</text>
<text text-anchor="start" x="485" y="-267.6" font-family="Roboto" font-size="8.00"> &#160;&#160;&#160;&#160;&#160;</text>
<text text-anchor="start" x="589" y="-267.6" font-family="Roboto" font-size="8.00"> &#160;&#160;&#160;&#160;&#160;</text>
<text text-anchor="start" x="603" y="-267.6" font-family="Roboto" font-weight="bold" font-size="8.00">ForeignKey (id)</text>
<text text-anchor="start" x="674" y="-267.6" font-family="Roboto" font-size="8.00"> &#160;&#160;&#160;&#160;&#160;</text>
<text text-anchor="start" x="431" y="-254.6" font-family="Roboto" font-size="8.00"> &#160;&#160;&#160;&#160;&#160;</text>
<text text-anchor="start" x="445" y="-254.6" font-family="Roboto" font-weight="bold" font-style="italic" font-size="8.00">license</text>
<text text-anchor="start" x="477" y="-254.6" font-family="Roboto" font-size="8.00"> &#160;&#160;&#160;&#160;&#160;</text>
<text text-anchor="start" x="589" y="-254.6" font-family="Roboto" font-size="8.00"> &#160;&#160;&#160;&#160;&#160;</text>
<text text-anchor="start" x="603" y="-254.6" font-family="Roboto" font-weight="bold" font-style="italic" font-size="8.00">ForeignKey (id)</text>
<text text-anchor="start" x="674" y="-254.6" font-family="Roboto" font-size="8.00"> &#160;&#160;&#160;&#160;&#160;</text>
<text text-anchor="start" x="431" y="-241.6" font-family="Roboto" font-size="8.00"> &#160;&#160;&#160;&#160;&#160;</text>
<text text-anchor="start" x="445" y="-241.6" font-family="Roboto" font-weight="bold" font-size="8.00" fill="#7b7b7b">variations</text>
<text text-anchor="start" x="491" y="-241.6" font-family="Roboto" font-size="8.00"> &#160;&#160;&#160;&#160;&#160;</text>
<text text-anchor="start" x="589" y="-241.6" font-family="Roboto" font-size="8.00"> &#160;&#160;&#160;&#160;&#160;</text>
<text text-anchor="start" x="603" y="-241.6" font-family="Roboto" font-weight="bold" font-size="8.00" fill="#7b7b7b">ForeignKey (id)</text>
<text text-anchor="start" x="674" y="-241.6" font-family="Roboto" font-size="8.00"> &#160;&#160;&#160;&#160;&#160;</text>
<text text-anchor="start" x="431" y="-228.6" font-family="Roboto" font-size="8.00"> &#160;&#160;&#160;&#160;&#160;</text>
<text text-anchor="start" x="445" y="-228.6" font-family="Roboto" font-style="italic" font-size="8.00" fill="#7b7b7b">license_author</text>
<text text-anchor="start" x="506" y="-228.6" font-family="Roboto" font-size="8.00"> &#160;&#160;&#160;&#160;&#160;</text>
<text text-anchor="start" x="589" y="-228.6" font-family="Roboto" font-size="8.00"> &#160;&#160;&#160;&#160;&#160;</text>
<text text-anchor="start" x="603" y="-228.6" font-family="Roboto" font-style="italic" font-size="8.00" fill="#7b7b7b">CharField</text>
<text text-anchor="start" x="641" y="-228.6" font-family="Roboto" font-size="8.00"> &#160;&#160;&#160;&#160;&#160;</text>
<text text-anchor="start" x="431" y="-215.6" font-family="Roboto" font-size="8.00"> &#160;&#160;&#160;&#160;&#160;</text>
<text text-anchor="start" x="445" y="-215.6" font-family="Roboto" font-style="italic" font-size="8.00">status</text>
<text text-anchor="start" x="471" y="-215.6" font-family="Roboto" font-size="8.00"> &#160;&#160;&#160;&#160;&#160;</text>
<text text-anchor="start" x="589" y="-215.6" font-family="Roboto" font-size="8.00"> &#160;&#160;&#160;&#160;&#160;</text>
<text text-anchor="start" x="603" y="-215.6" font-family="Roboto" font-style="italic" font-size="8.00">CharField</text>
<text text-anchor="start" x="641" y="-215.6" font-family="Roboto" font-size="8.00"> &#160;&#160;&#160;&#160;&#160;</text>
<polygon fill="none" stroke="black" points="427.5,-209 427.5,-319 756.5,-319 756.5,-209 427.5,-209"/>
</g>
<!-- wger_exercises_models_ExerciseBase&#45;&gt;wger_utils_models_AbstractSubmissionModel -->
<g id="edge1" class="edge">
<title>wger_exercises_models_ExerciseBase&#45;&gt;wger_utils_models_AbstractSubmissionModel</title>
<path fill="none" stroke="black" d="M419.38,-240.95C329.92,-227.41 231.32,-208.55 192,-187 174.12,-177.2 158.29,-160.84 146.62,-146.39"/>
<polygon fill="none" stroke="black" points="149.14,-143.92 140.24,-138.17 143.61,-148.22 149.14,-143.92"/>
<text text-anchor="middle" x="215.5" y="-180.6" font-family="Roboto" font-size="8.00"> abstract</text>
<text text-anchor="middle" x="215.5" y="-171.6" font-family="Roboto" font-size="8.00">inheritance</text>
</g>
<!-- wger_exercises_models_ExerciseBase&#45;&gt;wger_utils_models_AbstractLicenseModel -->
<g id="edge2" class="edge">
<title>wger_exercises_models_ExerciseBase&#45;&gt;wger_utils_models_AbstractLicenseModel</title>
<path fill="none" stroke="black" d="M764.77,-230.91C817.76,-219.21 875.83,-204.48 928,-187 959.06,-176.59 992.3,-162.05 1020,-148.92"/>
<polygon fill="none" stroke="black" points="1021.68,-152 1029.2,-144.53 1018.67,-145.68 1021.68,-152"/>
<text text-anchor="middle" x="994.5" y="-180.6" font-family="Roboto" font-size="8.00"> abstract</text>
<text text-anchor="middle" x="994.5" y="-171.6" font-family="Roboto" font-size="8.00">inheritance</text>
</g>
<!-- wger_exercises_models_ExerciseBase&#45;&gt;wger_exercises_models_Muscle -->
<g id="edge3" class="edge">
<title>wger_exercises_models_ExerciseBase&#45;&gt;wger_exercises_models_Muscle</title>
<path fill="none" stroke="black" d="M485.26,-200.25C478.99,-195.91 472.85,-191.47 467,-187 457.76,-179.94 457.51,-175.69 448,-169 441.1,-164.15 433.68,-159.48 426.11,-155.08"/>
<ellipse fill="black" stroke="black" cx="488.81" cy="-202.68" rx="4" ry="4"/>
<ellipse fill="black" stroke="black" cx="422.59" cy="-153.08" rx="4" ry="4"/>
<text text-anchor="middle" x="516.5" y="-176.1" font-family="Roboto" font-size="8.00"> muscles (exercisebase)</text>
</g>
<!-- wger_exercises_models_ExerciseBase&#45;&gt;wger_exercises_models_Muscle -->
<g id="edge4" class="edge">
<title>wger_exercises_models_ExerciseBase&#45;&gt;wger_exercises_models_Muscle</title>
<path fill="none" stroke="black" d="M410.88,-243.69C339.67,-232.03 269.71,-214.03 248,-187 237.72,-174.2 243.04,-162.63 255.31,-152.75"/>
<ellipse fill="black" stroke="black" cx="415.16" cy="-244.38" rx="4" ry="4"/>
<ellipse fill="black" stroke="black" cx="258.6" cy="-150.38" rx="4" ry="4"/>
<text text-anchor="middle" x="346" y="-176.1" font-family="Roboto" font-size="8.00"> muscles_secondary (secondary_muscles_base)</text>
</g>
<!-- wger_exercises_models_ExerciseBase&#45;&gt;wger_exercises_models_Equipment -->
<g id="edge5" class="edge">
<title>wger_exercises_models_ExerciseBase&#45;&gt;wger_exercises_models_Equipment</title>
<path fill="none" stroke="black" d="M680.65,-198.08C683.02,-194.52 685.16,-190.83 687,-187 692.03,-176.53 692.23,-164.2 690.49,-152.82"/>
<ellipse fill="black" stroke="black" cx="678.15" cy="-201.52" rx="4" ry="4"/>
<ellipse fill="black" stroke="black" cx="689.68" cy="-148.68" rx="4" ry="4"/>
<text text-anchor="middle" x="745.5" y="-176.1" font-family="Roboto" font-size="8.00"> equipment (exercisebase)</text>
</g>
<!-- wger_exercises_models_ExerciseBase&#45;&gt;wger_exercises_models_ExerciseCategory -->
<g id="edge6" class="edge">
<title>wger_exercises_models_ExerciseBase&#45;&gt;wger_exercises_models_ExerciseCategory</title>
<path fill="none" stroke="black" d="M772.05,-206.01C783.18,-200.2 793.93,-193.87 804,-187 820.51,-175.73 835.33,-158.95 846.24,-144.65"/>
<ellipse fill="black" stroke="black" cx="768.25" cy="-207.94" rx="4" ry="4"/>
<text text-anchor="middle" x="873.5" y="-176.1" font-family="Roboto" font-size="8.00"> category (exercisebase)</text>
</g>
<!-- wger_exercises_models_ExerciseBase&#45;&gt;wger_exercises_models_Variation -->
<g id="edge7" class="edge">
<title>wger_exercises_models_ExerciseBase&#45;&gt;wger_exercises_models_Variation</title>
<path fill="none" stroke="black" d="M581.68,-197.04C578.72,-187.28 574.9,-177.62 570,-169 563.37,-157.35 553.34,-146.65 543.71,-138.03"/>
<ellipse fill="black" stroke="black" cx="582.8" cy="-201.01" rx="4" ry="4"/>
<text text-anchor="middle" x="630" y="-176.1" font-family="Roboto" font-size="8.00"> variations (exercisebase)</text>
</g>
<!-- wger_exercises_models_Exercise -->
<g id="node8" class="node">
<title>wger_exercises_models_Exercise</title>
<polygon fill="white" stroke="transparent" points="427.5,-381 427.5,-556 756.5,-556 756.5,-381 427.5,-381"/>
<polygon fill="#1b563f" stroke="transparent" points="429,-524.5 429,-554.5 756,-554.5 756,-524.5 429,-524.5"/>
<text text-anchor="start" x="550" y="-542.5" font-family="Roboto" font-size="8.00"> &#160;&#160;&#160;&#160;&#160;</text>
<text text-anchor="start" x="564" y="-542.5" font-family="Roboto" font-weight="bold" font-size="10.00" fill="white"> &#160;&#160;&#160;&#160;&#160;Exercise</text>
<text text-anchor="start" x="434" y="-532.5" font-family="Roboto" font-weight="bold" font-size="10.00" fill="white">&lt;</text>
<text text-anchor="start" x="443" y="-532.5" font-family="Roboto" font-weight="bold" font-style="italic" font-size="10.00" fill="white">AbstractSubmissionModel,AbstractLicenseModel</text>
<text text-anchor="start" x="720" y="-532.5" font-family="Roboto" font-weight="bold" font-size="10.00" fill="white">&gt; &#160;&#160;&#160;&#160;&#160;</text>
<text text-anchor="start" x="431" y="-517.1" font-family="Roboto" font-size="8.00"> &#160;&#160;&#160;&#160;&#160;</text>
<text text-anchor="start" x="445" y="-517.1" font-family="Roboto" font-weight="bold" font-size="8.00">id</text>
<text text-anchor="start" x="455" y="-517.1" font-family="Roboto" font-size="8.00"> &#160;&#160;&#160;&#160;&#160;</text>
<text text-anchor="start" x="590" y="-517.1" font-family="Roboto" font-size="8.00"> &#160;&#160;&#160;&#160;&#160;</text>
<text text-anchor="start" x="604" y="-517.1" font-family="Roboto" font-weight="bold" font-size="8.00">AutoField</text>
<text text-anchor="start" x="648" y="-517.1" font-family="Roboto" font-size="8.00"> &#160;&#160;&#160;&#160;&#160;</text>
<text text-anchor="start" x="431" y="-504.1" font-family="Roboto" font-size="8.00"> &#160;&#160;&#160;&#160;&#160;</text>
<text text-anchor="start" x="445" y="-504.1" font-family="Roboto" font-weight="bold" font-size="8.00">exercise_base</text>
<text text-anchor="start" x="507" y="-504.1" font-family="Roboto" font-size="8.00"> &#160;&#160;&#160;&#160;&#160;</text>
<text text-anchor="start" x="590" y="-504.1" font-family="Roboto" font-size="8.00"> &#160;&#160;&#160;&#160;&#160;</text>
<text text-anchor="start" x="604" y="-504.1" font-family="Roboto" font-weight="bold" font-size="8.00">ForeignKey (id)</text>
<text text-anchor="start" x="675" y="-504.1" font-family="Roboto" font-size="8.00"> &#160;&#160;&#160;&#160;&#160;</text>
<text text-anchor="start" x="431" y="-491.1" font-family="Roboto" font-size="8.00"> &#160;&#160;&#160;&#160;&#160;</text>
<text text-anchor="start" x="445" y="-491.1" font-family="Roboto" font-weight="bold" font-size="8.00">language</text>
<text text-anchor="start" x="488" y="-491.1" font-family="Roboto" font-size="8.00"> &#160;&#160;&#160;&#160;&#160;</text>
<text text-anchor="start" x="590" y="-491.1" font-family="Roboto" font-size="8.00"> &#160;&#160;&#160;&#160;&#160;</text>
<text text-anchor="start" x="604" y="-491.1" font-family="Roboto" font-weight="bold" font-size="8.00">ForeignKey (id)</text>
<text text-anchor="start" x="675" y="-491.1" font-family="Roboto" font-size="8.00"> &#160;&#160;&#160;&#160;&#160;</text>
<text text-anchor="start" x="431" y="-478.1" font-family="Roboto" font-size="8.00"> &#160;&#160;&#160;&#160;&#160;</text>
<text text-anchor="start" x="445" y="-478.1" font-family="Roboto" font-weight="bold" font-style="italic" font-size="8.00">license</text>
<text text-anchor="start" x="477" y="-478.1" font-family="Roboto" font-size="8.00"> &#160;&#160;&#160;&#160;&#160;</text>
<text text-anchor="start" x="590" y="-478.1" font-family="Roboto" font-size="8.00"> &#160;&#160;&#160;&#160;&#160;</text>
<text text-anchor="start" x="604" y="-478.1" font-family="Roboto" font-weight="bold" font-style="italic" font-size="8.00">ForeignKey (id)</text>
<text text-anchor="start" x="675" y="-478.1" font-family="Roboto" font-size="8.00"> &#160;&#160;&#160;&#160;&#160;</text>
<text text-anchor="start" x="431" y="-465.1" font-family="Roboto" font-size="8.00"> &#160;&#160;&#160;&#160;&#160;</text>
<text text-anchor="start" x="445" y="-465.1" font-family="Roboto" font-size="8.00" fill="#7b7b7b">creation_date</text>
<text text-anchor="start" x="502" y="-465.1" font-family="Roboto" font-size="8.00"> &#160;&#160;&#160;&#160;&#160;</text>
<text text-anchor="start" x="590" y="-465.1" font-family="Roboto" font-size="8.00"> &#160;&#160;&#160;&#160;&#160;</text>
<text text-anchor="start" x="604" y="-465.1" font-family="Roboto" font-size="8.00" fill="#7b7b7b">DateField</text>
<text text-anchor="start" x="643" y="-465.1" font-family="Roboto" font-size="8.00"> &#160;&#160;&#160;&#160;&#160;</text>
<text text-anchor="start" x="431" y="-452.1" font-family="Roboto" font-size="8.00"> &#160;&#160;&#160;&#160;&#160;</text>
<text text-anchor="start" x="445" y="-452.1" font-family="Roboto" font-size="8.00">description</text>
<text text-anchor="start" x="491" y="-452.1" font-family="Roboto" font-size="8.00"> &#160;&#160;&#160;&#160;&#160;</text>
<text text-anchor="start" x="590" y="-452.1" font-family="Roboto" font-size="8.00"> &#160;&#160;&#160;&#160;&#160;</text>
<text text-anchor="start" x="604" y="-452.1" font-family="Roboto" font-size="8.00">TextField</text>
<text text-anchor="start" x="639" y="-452.1" font-family="Roboto" font-size="8.00"> &#160;&#160;&#160;&#160;&#160;</text>
<text text-anchor="start" x="431" y="-439.1" font-family="Roboto" font-size="8.00"> &#160;&#160;&#160;&#160;&#160;</text>
<text text-anchor="start" x="445" y="-439.1" font-family="Roboto" font-style="italic" font-size="8.00" fill="#7b7b7b">license_author</text>
<text text-anchor="start" x="506" y="-439.1" font-family="Roboto" font-size="8.00"> &#160;&#160;&#160;&#160;&#160;</text>
<text text-anchor="start" x="590" y="-439.1" font-family="Roboto" font-size="8.00"> &#160;&#160;&#160;&#160;&#160;</text>
<text text-anchor="start" x="604" y="-439.1" font-family="Roboto" font-style="italic" font-size="8.00" fill="#7b7b7b">CharField</text>
<text text-anchor="start" x="642" y="-439.1" font-family="Roboto" font-size="8.00"> &#160;&#160;&#160;&#160;&#160;</text>
<text text-anchor="start" x="431" y="-426.1" font-family="Roboto" font-size="8.00"> &#160;&#160;&#160;&#160;&#160;</text>
<text text-anchor="start" x="445" y="-426.1" font-family="Roboto" font-size="8.00">name</text>
<text text-anchor="start" x="469" y="-426.1" font-family="Roboto" font-size="8.00"> &#160;&#160;&#160;&#160;&#160;</text>
<text text-anchor="start" x="590" y="-426.1" font-family="Roboto" font-size="8.00"> &#160;&#160;&#160;&#160;&#160;</text>
<text text-anchor="start" x="604" y="-426.1" font-family="Roboto" font-size="8.00">CharField</text>
<text text-anchor="start" x="642" y="-426.1" font-family="Roboto" font-size="8.00"> &#160;&#160;&#160;&#160;&#160;</text>
<text text-anchor="start" x="431" y="-413.1" font-family="Roboto" font-size="8.00"> &#160;&#160;&#160;&#160;&#160;</text>
<text text-anchor="start" x="445" y="-413.1" font-family="Roboto" font-size="8.00">name_original</text>
<text text-anchor="start" x="503" y="-413.1" font-family="Roboto" font-size="8.00"> &#160;&#160;&#160;&#160;&#160;</text>
<text text-anchor="start" x="590" y="-413.1" font-family="Roboto" font-size="8.00"> &#160;&#160;&#160;&#160;&#160;</text>
<text text-anchor="start" x="604" y="-413.1" font-family="Roboto" font-size="8.00">CharField</text>
<text text-anchor="start" x="642" y="-413.1" font-family="Roboto" font-size="8.00"> &#160;&#160;&#160;&#160;&#160;</text>
<text text-anchor="start" x="431" y="-400.1" font-family="Roboto" font-size="8.00"> &#160;&#160;&#160;&#160;&#160;</text>
<text text-anchor="start" x="445" y="-400.1" font-family="Roboto" font-style="italic" font-size="8.00">status</text>
<text text-anchor="start" x="471" y="-400.1" font-family="Roboto" font-size="8.00"> &#160;&#160;&#160;&#160;&#160;</text>
<text text-anchor="start" x="590" y="-400.1" font-family="Roboto" font-size="8.00"> &#160;&#160;&#160;&#160;&#160;</text>
<text text-anchor="start" x="604" y="-400.1" font-family="Roboto" font-style="italic" font-size="8.00">CharField</text>
<text text-anchor="start" x="642" y="-400.1" font-family="Roboto" font-size="8.00"> &#160;&#160;&#160;&#160;&#160;</text>
<text text-anchor="start" x="431" y="-387.1" font-family="Roboto" font-size="8.00"> &#160;&#160;&#160;&#160;&#160;</text>
<text text-anchor="start" x="445" y="-387.1" font-family="Roboto" font-size="8.00">uuid</text>
<text text-anchor="start" x="464" y="-387.1" font-family="Roboto" font-size="8.00"> &#160;&#160;&#160;&#160;&#160;</text>
<text text-anchor="start" x="590" y="-387.1" font-family="Roboto" font-size="8.00"> &#160;&#160;&#160;&#160;&#160;</text>
<text text-anchor="start" x="604" y="-387.1" font-family="Roboto" font-size="8.00">UUIDField</text>
<text text-anchor="start" x="644" y="-387.1" font-family="Roboto" font-size="8.00"> &#160;&#160;&#160;&#160;&#160;</text>
<polygon fill="none" stroke="black" points="427.5,-381 427.5,-556 756.5,-556 756.5,-381 427.5,-381"/>
</g>
<!-- wger_exercises_models_Exercise&#45;&gt;wger_utils_models_AbstractSubmissionModel -->
<g id="edge8" class="edge">
<title>wger_exercises_models_Exercise&#45;&gt;wger_utils_models_AbstractSubmissionModel</title>
<path fill="none" stroke="black" d="M419.26,-380.68C335.06,-332.16 236.75,-265.61 165,-187 154.43,-175.42 145.62,-160.48 139.05,-147.38"/>
<polygon fill="none" stroke="black" points="142.15,-145.75 134.68,-138.23 135.83,-148.76 142.15,-145.75"/>
<text text-anchor="middle" x="347.5" y="-266.6" font-family="Roboto" font-size="8.00"> abstract</text>
<text text-anchor="middle" x="347.5" y="-257.6" font-family="Roboto" font-size="8.00">inheritance</text>
</g>
<!-- wger_exercises_models_Exercise&#45;&gt;wger_utils_models_AbstractLicenseModel -->
<g id="edge9" class="edge">
<title>wger_exercises_models_Exercise&#45;&gt;wger_utils_models_AbstractLicenseModel</title>
<path fill="none" stroke="black" d="M753.13,-377C837.21,-326.25 939.46,-258.81 1022,-187 1033.9,-176.68 1045.5,-164.07 1055.4,-152.41"/>
<polygon fill="none" stroke="black" points="1058.26,-154.44 1062,-144.53 1052.9,-149.95 1058.26,-154.44"/>
<text text-anchor="middle" x="1021.5" y="-266.6" font-family="Roboto" font-size="8.00"> abstract</text>
<text text-anchor="middle" x="1021.5" y="-257.6" font-family="Roboto" font-size="8.00">inheritance</text>
</g>
<!-- wger_exercises_models_Exercise&#45;&gt;wger_exercises_models_ExerciseBase -->
<g id="edge10" class="edge">
<title>wger_exercises_models_Exercise&#45;&gt;wger_exercises_models_ExerciseBase</title>
<path fill="none" stroke="black" d="M592,-368.78C592,-353.19 592,-337.52 592,-323.26"/>
<ellipse fill="black" stroke="black" cx="592" cy="-372.91" rx="4" ry="4"/>
<text text-anchor="middle" x="645.5" y="-348.1" font-family="Roboto" font-size="8.00"> exercise_base (exercises)</text>
</g>
<!-- wger_core_models_Language -->
<g id="node12" class="node">
<title>wger_core_models_Language</title>
<polygon fill="white" stroke="transparent" points="1214,-253.5 1214,-274.5 1292,-274.5 1292,-253.5 1214,-253.5"/>
<polygon fill="#1b563f" stroke="transparent" points="1214,-253 1214,-274 1292,-274 1292,-253 1214,-253"/>
<text text-anchor="start" x="1218" y="-261.4" font-family="Roboto" font-size="8.00"> &#160;</text>
<text text-anchor="start" x="1223" y="-261.4" font-family="Roboto" font-size="12.00" fill="white">Language</text>
<text text-anchor="start" x="1283" y="-261.4" font-family="Roboto" font-size="8.00"> &#160;</text>
</g>
<!-- wger_exercises_models_Exercise&#45;&gt;wger_core_models_Language -->
<g id="edge16" class="edge">
<title>wger_exercises_models_Exercise&#45;&gt;wger_core_models_Language</title>
<path fill="none" stroke="black" d="M772.73,-450.06C883.77,-435.03 1027.2,-407.72 1147,-359 1174.1,-347.99 1179.9,-342.14 1202,-323 1216.3,-310.61 1230.3,-294.27 1240,-282.1"/>
<ellipse fill="black" stroke="black" cx="768.75" cy="-450.59" rx="4" ry="4"/>
<text text-anchor="middle" x="1221" y="-348.1" font-family="Roboto" font-size="8.00"> language (exercise)</text>
</g>
<!-- wger_exercises_models_ExerciseImage -->
<g id="node9" class="node">
<title>wger_exercises_models_ExerciseImage</title>
<polygon fill="white" stroke="transparent" points="427.5,-609 427.5,-732 756.5,-732 756.5,-609 427.5,-609"/>
<polygon fill="#1b563f" stroke="transparent" points="429,-700.5 429,-730.5 756,-730.5 756,-700.5 429,-700.5"/>
<text text-anchor="start" x="532.5" y="-718.5" font-family="Roboto" font-size="8.00"> &#160;&#160;&#160;&#160;&#160;</text>
<text text-anchor="start" x="546.5" y="-718.5" font-family="Roboto" font-weight="bold" font-size="10.00" fill="white"> &#160;&#160;&#160;&#160;&#160;ExerciseImage</text>
<text text-anchor="start" x="434" y="-708.5" font-family="Roboto" font-weight="bold" font-size="10.00" fill="white">&lt;</text>
<text text-anchor="start" x="443" y="-708.5" font-family="Roboto" font-weight="bold" font-style="italic" font-size="10.00" fill="white">AbstractSubmissionModel,AbstractLicenseModel</text>
<text text-anchor="start" x="720" y="-708.5" font-family="Roboto" font-weight="bold" font-size="10.00" fill="white">&gt; &#160;&#160;&#160;&#160;&#160;</text>
<text text-anchor="start" x="431" y="-693.1" font-family="Roboto" font-size="8.00"> &#160;&#160;&#160;&#160;&#160;</text>
<text text-anchor="start" x="445" y="-693.1" font-family="Roboto" font-weight="bold" font-size="8.00">id</text>
<text text-anchor="start" x="455" y="-693.1" font-family="Roboto" font-size="8.00"> &#160;&#160;&#160;&#160;&#160;</text>
<text text-anchor="start" x="589" y="-693.1" font-family="Roboto" font-size="8.00"> &#160;&#160;&#160;&#160;&#160;</text>
<text text-anchor="start" x="603" y="-693.1" font-family="Roboto" font-weight="bold" font-size="8.00">AutoField</text>
<text text-anchor="start" x="647" y="-693.1" font-family="Roboto" font-size="8.00"> &#160;&#160;&#160;&#160;&#160;</text>
<text text-anchor="start" x="431" y="-680.1" font-family="Roboto" font-size="8.00"> &#160;&#160;&#160;&#160;&#160;</text>
<text text-anchor="start" x="445" y="-680.1" font-family="Roboto" font-weight="bold" font-size="8.00">exercise</text>
<text text-anchor="start" x="482" y="-680.1" font-family="Roboto" font-size="8.00"> &#160;&#160;&#160;&#160;&#160;</text>
<text text-anchor="start" x="589" y="-680.1" font-family="Roboto" font-size="8.00"> &#160;&#160;&#160;&#160;&#160;</text>
<text text-anchor="start" x="603" y="-680.1" font-family="Roboto" font-weight="bold" font-size="8.00">ForeignKey (id)</text>
<text text-anchor="start" x="674" y="-680.1" font-family="Roboto" font-size="8.00"> &#160;&#160;&#160;&#160;&#160;</text>
<text text-anchor="start" x="431" y="-667.1" font-family="Roboto" font-size="8.00"> &#160;&#160;&#160;&#160;&#160;</text>
<text text-anchor="start" x="445" y="-667.1" font-family="Roboto" font-weight="bold" font-style="italic" font-size="8.00">license</text>
<text text-anchor="start" x="477" y="-667.1" font-family="Roboto" font-size="8.00"> &#160;&#160;&#160;&#160;&#160;</text>
<text text-anchor="start" x="589" y="-667.1" font-family="Roboto" font-size="8.00"> &#160;&#160;&#160;&#160;&#160;</text>
<text text-anchor="start" x="603" y="-667.1" font-family="Roboto" font-weight="bold" font-style="italic" font-size="8.00">ForeignKey (id)</text>
<text text-anchor="start" x="674" y="-667.1" font-family="Roboto" font-size="8.00"> &#160;&#160;&#160;&#160;&#160;</text>
<text text-anchor="start" x="431" y="-654.1" font-family="Roboto" font-size="8.00"> &#160;&#160;&#160;&#160;&#160;</text>
<text text-anchor="start" x="445" y="-654.1" font-family="Roboto" font-size="8.00">image</text>
<text text-anchor="start" x="471" y="-654.1" font-family="Roboto" font-size="8.00"> &#160;&#160;&#160;&#160;&#160;</text>
<text text-anchor="start" x="589" y="-654.1" font-family="Roboto" font-size="8.00"> &#160;&#160;&#160;&#160;&#160;</text>
<text text-anchor="start" x="603" y="-654.1" font-family="Roboto" font-size="8.00">ImageField</text>
<text text-anchor="start" x="648" y="-654.1" font-family="Roboto" font-size="8.00"> &#160;&#160;&#160;&#160;&#160;</text>
<text text-anchor="start" x="431" y="-641.1" font-family="Roboto" font-size="8.00"> &#160;&#160;&#160;&#160;&#160;</text>
<text text-anchor="start" x="445" y="-641.1" font-family="Roboto" font-size="8.00">is_main</text>
<text text-anchor="start" x="476" y="-641.1" font-family="Roboto" font-size="8.00"> &#160;&#160;&#160;&#160;&#160;</text>
<text text-anchor="start" x="589" y="-641.1" font-family="Roboto" font-size="8.00"> &#160;&#160;&#160;&#160;&#160;</text>
<text text-anchor="start" x="603" y="-641.1" font-family="Roboto" font-size="8.00">BooleanField</text>
<text text-anchor="start" x="656" y="-641.1" font-family="Roboto" font-size="8.00"> &#160;&#160;&#160;&#160;&#160;</text>
<text text-anchor="start" x="431" y="-628.1" font-family="Roboto" font-size="8.00"> &#160;&#160;&#160;&#160;&#160;</text>
<text text-anchor="start" x="445" y="-628.1" font-family="Roboto" font-style="italic" font-size="8.00" fill="#7b7b7b">license_author</text>
<text text-anchor="start" x="506" y="-628.1" font-family="Roboto" font-size="8.00"> &#160;&#160;&#160;&#160;&#160;</text>
<text text-anchor="start" x="589" y="-628.1" font-family="Roboto" font-size="8.00"> &#160;&#160;&#160;&#160;&#160;</text>
<text text-anchor="start" x="603" y="-628.1" font-family="Roboto" font-style="italic" font-size="8.00" fill="#7b7b7b">CharField</text>
<text text-anchor="start" x="641" y="-628.1" font-family="Roboto" font-size="8.00"> &#160;&#160;&#160;&#160;&#160;</text>
<text text-anchor="start" x="431" y="-615.1" font-family="Roboto" font-size="8.00"> &#160;&#160;&#160;&#160;&#160;</text>
<text text-anchor="start" x="445" y="-615.1" font-family="Roboto" font-style="italic" font-size="8.00">status</text>
<text text-anchor="start" x="471" y="-615.1" font-family="Roboto" font-size="8.00"> &#160;&#160;&#160;&#160;&#160;</text>
<text text-anchor="start" x="589" y="-615.1" font-family="Roboto" font-size="8.00"> &#160;&#160;&#160;&#160;&#160;</text>
<text text-anchor="start" x="603" y="-615.1" font-family="Roboto" font-style="italic" font-size="8.00">CharField</text>
<text text-anchor="start" x="641" y="-615.1" font-family="Roboto" font-size="8.00"> &#160;&#160;&#160;&#160;&#160;</text>
<polygon fill="none" stroke="black" points="427.5,-609 427.5,-732 756.5,-732 756.5,-609 427.5,-609"/>
</g>
<!-- wger_exercises_models_ExerciseImage&#45;&gt;wger_utils_models_AbstractSubmissionModel -->
<g id="edge11" class="edge">
<title>wger_exercises_models_ExerciseImage&#45;&gt;wger_utils_models_AbstractSubmissionModel</title>
<path fill="none" stroke="black" d="M475.04,-604.91C453.07,-591.07 430.79,-575.82 411,-560 296.84,-468.73 255.37,-449.99 183,-323 150.65,-266.23 135.83,-190.1 129.74,-148.1"/>
<polygon fill="none" stroke="black" points="133.21,-147.62 128.37,-138.19 126.27,-148.58 133.21,-147.62"/>
<text text-anchor="middle" x="227.5" y="-352.6" font-family="Roboto" font-size="8.00"> abstract</text>
<text text-anchor="middle" x="227.5" y="-343.6" font-family="Roboto" font-size="8.00">inheritance</text>
</g>
<!-- wger_exercises_models_ExerciseImage&#45;&gt;wger_utils_models_AbstractLicenseModel -->
<g id="edge12" class="edge">
<title>wger_exercises_models_ExerciseImage&#45;&gt;wger_utils_models_AbstractLicenseModel</title>
<path fill="none" stroke="black" d="M729.14,-604.99C835.63,-547.07 976.93,-451.39 1049,-323 1078.8,-270 1084.1,-198.06 1084.3,-154.72"/>
<polygon fill="none" stroke="black" points="1087.8,-154.57 1084.2,-144.61 1080.8,-154.64 1087.8,-154.57"/>
<text text-anchor="middle" x="1059.5" y="-352.6" font-family="Roboto" font-size="8.00"> abstract</text>
<text text-anchor="middle" x="1059.5" y="-343.6" font-family="Roboto" font-size="8.00">inheritance</text>
</g>
<!-- wger_exercises_models_ExerciseImage&#45;&gt;wger_exercises_models_Exercise -->
<g id="edge13" class="edge">
<title>wger_exercises_models_ExerciseImage&#45;&gt;wger_exercises_models_Exercise</title>
<path fill="none" stroke="black" d="M592,-596.71C592,-584.82 592,-572.38 592,-560.13"/>
<ellipse fill="black" stroke="black" cx="592" cy="-600.84" rx="4" ry="4"/>
<text text-anchor="middle" x="644" y="-580.6" font-family="Roboto" font-size="8.00"> exercise (exerciseimage)</text>
</g>
<!-- wger_exercises_models_ExerciseComment -->
<g id="node10" class="node">
<title>wger_exercises_models_ExerciseComment</title>
<polygon fill="white" stroke="transparent" points="16,-639.5 16,-701.5 192,-701.5 192,-639.5 16,-639.5"/>
<polygon fill="#1b563f" stroke="transparent" points="17,-679.5 17,-700.5 191,-700.5 191,-679.5 17,-679.5"/>
<text text-anchor="start" x="23.5" y="-688.5" font-family="Roboto" font-size="8.00"> &#160;&#160;&#160;&#160;&#160;</text>
<text text-anchor="start" x="37.5" y="-688.5" font-family="Roboto" font-weight="bold" font-size="10.00" fill="white"> &#160;&#160;&#160;&#160;&#160;ExerciseComment &#160;&#160;&#160;&#160;&#160;</text>
<text text-anchor="start" x="19" y="-672.1" font-family="Roboto" font-size="8.00"> &#160;&#160;&#160;&#160;&#160;</text>
<text text-anchor="start" x="33" y="-672.1" font-family="Roboto" font-weight="bold" font-size="8.00">id</text>
<text text-anchor="start" x="43" y="-672.1" font-family="Roboto" font-size="8.00"> &#160;&#160;&#160;&#160;&#160;</text>
<text text-anchor="start" x="90" y="-672.1" font-family="Roboto" font-size="8.00"> &#160;&#160;&#160;&#160;&#160;</text>
<text text-anchor="start" x="104" y="-672.1" font-family="Roboto" font-weight="bold" font-size="8.00">AutoField</text>
<text text-anchor="start" x="148" y="-672.1" font-family="Roboto" font-size="8.00"> &#160;&#160;&#160;&#160;&#160;</text>
<text text-anchor="start" x="19" y="-659.1" font-family="Roboto" font-size="8.00"> &#160;&#160;&#160;&#160;&#160;</text>
<text text-anchor="start" x="33" y="-659.1" font-family="Roboto" font-weight="bold" font-size="8.00">exercise</text>
<text text-anchor="start" x="70" y="-659.1" font-family="Roboto" font-size="8.00"> &#160;&#160;&#160;&#160;&#160;</text>
<text text-anchor="start" x="90" y="-659.1" font-family="Roboto" font-size="8.00"> &#160;&#160;&#160;&#160;&#160;</text>
<text text-anchor="start" x="104" y="-659.1" font-family="Roboto" font-weight="bold" font-size="8.00">ForeignKey (id)</text>
<text text-anchor="start" x="175" y="-659.1" font-family="Roboto" font-size="8.00"> &#160;&#160;&#160;&#160;&#160;</text>
<text text-anchor="start" x="19" y="-646.1" font-family="Roboto" font-size="8.00"> &#160;&#160;&#160;&#160;&#160;</text>
<text text-anchor="start" x="33" y="-646.1" font-family="Roboto" font-size="8.00">comment</text>
<text text-anchor="start" x="72" y="-646.1" font-family="Roboto" font-size="8.00"> &#160;&#160;&#160;&#160;&#160;</text>
<text text-anchor="start" x="90" y="-646.1" font-family="Roboto" font-size="8.00"> &#160;&#160;&#160;&#160;&#160;</text>
<text text-anchor="start" x="104" y="-646.1" font-family="Roboto" font-size="8.00">CharField</text>
<text text-anchor="start" x="142" y="-646.1" font-family="Roboto" font-size="8.00"> &#160;&#160;&#160;&#160;&#160;</text>
<polygon fill="none" stroke="black" points="16,-639.5 16,-701.5 192,-701.5 192,-639.5 16,-639.5"/>
</g>
<!-- wger_exercises_models_ExerciseComment&#45;&gt;wger_exercises_models_Exercise -->
<g id="edge14" class="edge">
<title>wger_exercises_models_ExerciseComment&#45;&gt;wger_exercises_models_Exercise</title>
<path fill="none" stroke="black" d="M194.62,-632.36C257.59,-606.55 343.48,-571.35 419.3,-540.28"/>
<ellipse fill="black" stroke="black" cx="190.76" cy="-633.94" rx="4" ry="4"/>
<text text-anchor="middle" x="376.5" y="-580.6" font-family="Roboto" font-size="8.00"> exercise (exercisecomment)</text>
</g>
</g>
</svg>
