<svg width="60" height="80" viewBox="0 0 60 80" fill="none" xmlns="http://www.w3.org/2000/svg">
<path d="M60 22.5C60 15.625 54.375 10 47.5 10C40.4688 10 35 15.625 35 22.5C35 28.2812 38.75 33.125 43.9062 34.5312C43.75 37.0312 43.2812 39.0625 42.1875 40.3125C39.8438 43.2812 34.5312 43.9062 28.9062 44.375C24.5312 44.6875 19.8438 45.1562 16.25 47.0312V24.5312C21.25 22.9688 25 18.125 25 12.5C25 5.625 19.375 0 12.5 0C5.46875 0 0 5.625 0 12.5C0 18.125 3.59375 22.9688 8.75 24.5312V55.625C3.59375 57.1875 0 62.0312 0 67.5C0 74.5312 5.46875 80 12.5 80C19.375 80 25 74.5312 25 67.5C25 62.1875 21.5625 57.6562 16.875 55.9375C17.3438 55.1562 18.125 54.375 19.2188 53.75C21.7188 52.5 25.625 52.1875 29.5312 51.875C36.25 51.25 43.5938 50.4688 48.125 45C50.3125 42.3438 51.4062 38.75 51.4062 34.375C56.4062 32.8125 60 28.125 60 22.5ZM12.5 10C13.75 10 15 11.25 15 12.5C15 13.9062 13.75 15 12.5 15C11.0938 15 10 13.9062 10 12.5C10 11.25 11.0938 10 12.5 10ZM12.5 70C11.0938 70 10 68.9062 10 67.5C10 66.25 11.0938 65 12.5 65C13.75 65 15 66.25 15 67.5C15 68.9062 13.75 70 12.5 70ZM47.5 20C48.75 20 50 21.25 50 22.5C50 23.9062 48.75 25 47.5 25C46.0938 25 45 23.9062 45 22.5C45 21.25 46.0938 20 47.5 20Z" fill="white"/>
</svg>
